<svg width="55" height="55" viewBox="0 0 55 55" fill="none" xmlns="http://www.w3.org/2000/svg">
    <path d="M45.833 13.7499C45.833 13.1421 45.5916 12.5592 45.1618 12.1295C44.732 11.6997 44.1491 11.4583 43.5413 11.4583H11.458C10.8502 11.4583 10.2673 11.6997 9.83755 12.1295C9.40778 12.5592 9.16634 13.1421 9.16634 13.7499C9.16634 14.3577 9.40778 14.9406 9.83755 15.3704C10.2673 15.8001 10.8502 16.0416 11.458 16.0416H43.5413C44.1491 16.0416 44.732 15.8001 45.1618 15.3704C45.5916 14.9406 45.833 14.3577 45.833 13.7499Z" fill="white"/>
    <path d="M45.833 41.2499C45.833 40.6421 45.5916 40.0592 45.1618 39.6295C44.732 39.1997 44.1491 38.9583 43.5413 38.9583H11.458C10.8502 38.9583 10.2673 39.1997 9.83755 39.6295C9.40778 40.0592 9.16634 40.6421 9.16634 41.2499C9.16634 41.8577 9.40778 42.4406 9.83755 42.8704C10.2673 43.3002 10.8502 43.5416 11.458 43.5416H43.5413C44.1491 43.5416 44.732 43.3002 45.1618 42.8704C45.5916 42.4406 45.833 41.8577 45.833 41.2499Z" fill="white"/>
    <path d="M29.7913 25.2083C30.3991 25.2083 30.982 25.4497 31.4118 25.8795C31.8416 26.3092 32.083 26.8921 32.083 27.4999C32.083 28.1077 31.8416 28.6906 31.4118 29.1204C30.982 29.5501 30.3991 29.7916 29.7913 29.7916H11.458C10.8502 29.7916 10.2673 29.5501 9.83755 29.1204C9.40778 28.6906 9.16634 28.1077 9.16634 27.4999C9.16634 26.8921 9.40778 26.3092 9.83755 25.8795C10.2673 25.4497 10.8502 25.2083 11.458 25.2083H29.7913Z" fill="white"/>
</svg>
