<svg width="18" height="18" viewBox="0 0 18 18" fill="none" xmlns="http://www.w3.org/2000/svg">
    <path d="M2.26286 0.612897C2.04283 0.40038 1.74812 0.282786 1.44223 0.285444C1.13633 0.288103 0.843717 0.4108 0.627407 0.627109C0.411098 0.843419 0.2884 1.13603 0.285742 1.44193C0.283084 1.74783 0.400677 2.04253 0.613195 2.26256L7.35069 9.00006L0.612029 15.7376C0.5006 15.8452 0.411721 15.9739 0.350577 16.1163C0.289433 16.2586 0.25725 16.4117 0.255903 16.5666C0.254557 16.7215 0.284076 16.8751 0.342737 17.0185C0.401398 17.1619 0.488026 17.2922 0.597568 17.4017C0.707109 17.5112 0.83737 17.5979 0.980749 17.6565C1.12413 17.7152 1.27775 17.7447 1.43266 17.7434C1.58757 17.742 1.74066 17.7098 1.883 17.6487C2.02534 17.5875 2.15407 17.4987 2.2617 17.3872L9.00036 10.6497L15.7379 17.3872C15.9579 17.5997 16.2526 17.7173 16.5585 17.7147C16.8644 17.712 17.157 17.5893 17.3733 17.373C17.5896 17.1567 17.7123 16.8641 17.715 16.5582C17.7176 16.2523 17.6 15.9576 17.3875 15.7376L10.65 9.00006L17.3875 2.26256C17.6 2.04253 17.7176 1.74783 17.715 1.44193C17.7123 1.13603 17.5896 0.843419 17.3733 0.627109C17.157 0.4108 16.8644 0.288103 16.5585 0.285444C16.2526 0.282786 15.9579 0.40038 15.7379 0.612897L9.00036 7.3504L2.26286 0.611731V0.612897Z" fill="white"/>
</svg>
