<svg width="39" height="39" viewBox="0 0 39 39" fill="none" xmlns="http://www.w3.org/2000/svg">
    <g clip-path="url(#clip0)">
        <path d="M21.6196 9.59894C22.6914 8.88884 23.3359 7.68883 23.3363 6.40318C23.337 4.28518 21.6205 2.56778 19.5025 2.56714C17.3846 2.5665 15.6672 4.28295 15.6665 6.40094C15.6661 7.68739 16.3109 8.88836 17.3833 9.59894C17.1697 9.74099 16.9708 9.9039 16.7895 10.0853C16.0685 10.8023 15.6642 11.7779 15.6665 12.7947V14.7122C15.6665 15.0651 15.9527 15.3513 16.3057 15.3513H22.6972C23.0502 15.3513 23.3363 15.0651 23.3363 14.7122V12.7947C23.3392 11.7773 22.9348 10.8009 22.2134 10.0834C22.032 9.90262 21.8331 9.74035 21.6196 9.59894ZM16.9448 6.40318C16.9448 4.99121 18.0895 3.84656 19.5014 3.84656C20.9134 3.84656 22.058 4.99121 22.058 6.40318C22.058 7.81515 20.9134 8.95979 19.5014 8.95979C18.0895 8.95979 16.9448 7.81515 16.9448 6.40318ZM22.058 14.073H16.9448V12.7947C16.9431 12.1165 17.2125 11.4657 17.6933 10.9872C18.0168 10.6708 18.4213 10.4497 18.8623 10.348V12.1556C18.8623 12.5085 19.1485 12.7947 19.5014 12.7947C19.8544 12.7947 20.1406 12.5085 20.1406 12.1556V10.3493C20.5815 10.4509 20.986 10.6721 21.3096 10.9885C21.79 11.4666 22.0594 12.1169 22.058 12.7947V14.073Z" fill="white"/>
        <path d="M36.9592 33.2476C38.031 32.5375 38.6756 31.3375 38.676 30.0518C38.6726 28.1825 37.3231 26.5875 35.4803 26.2744V22.382C35.4803 22.029 35.1941 21.7428 34.8411 21.7428H20.1406V19.1536C25.4237 18.8007 29.4204 14.2317 29.0674 8.94851C28.7144 3.66535 24.1454 -0.331351 18.8623 0.0217011C13.5791 0.374753 9.58249 4.94366 9.93546 10.2268C10.2556 15.0181 14.071 18.8335 18.8623 19.1536V21.7428H4.16175C3.80878 21.7428 3.5226 22.029 3.5226 22.382V26.2744C1.4364 26.6232 0.0279497 28.5971 0.376767 30.6833C0.552135 31.7325 1.15597 32.6614 2.0436 33.2476C1.83004 33.3896 1.63111 33.5525 1.44983 33.734C0.728861 34.451 0.324517 35.4265 0.326834 36.4434V38.3608C0.326834 38.7138 0.613014 39 0.965987 39H7.35752C7.71049 39 7.99667 38.7138 7.99667 38.3608V36.4434C7.99955 35.4259 7.59512 34.4495 6.87368 33.7321C6.69232 33.5513 6.49338 33.389 6.2799 33.2476C8.04485 32.0819 8.53076 29.7063 7.36519 27.9413C6.779 27.0536 5.85007 26.4498 4.8009 26.2744V23.0211H18.8623V26.2744C16.7761 26.6232 15.3676 28.5972 15.7164 30.6833C15.8918 31.7325 16.4956 32.6614 17.3833 33.2476C17.1697 33.3896 16.9708 33.5525 16.7895 33.734C16.0685 34.451 15.6642 35.4265 15.6665 36.4434V38.3608C15.6665 38.7138 15.9527 39 16.3057 39H22.6972C23.0502 39 23.3363 38.7138 23.3363 38.3608V36.4434C23.3392 35.4259 22.9348 34.4495 22.2134 33.7321C22.032 33.5513 21.8331 33.389 21.6196 33.2476C23.3845 32.0819 23.8704 29.7063 22.7049 27.9413C22.1187 27.0536 21.1897 26.4498 20.1406 26.2744V23.0211H34.2019V26.2744C32.1157 26.6232 30.7073 28.5972 31.0561 30.6833C31.2315 31.7325 31.8353 32.6614 32.7229 33.2476C32.5094 33.3896 32.3104 33.5525 32.1292 33.734C31.4082 34.451 31.0039 35.4265 31.0062 36.4434V38.3608C31.0062 38.7138 31.2924 39 31.6453 39H38.0369C38.3898 39 38.676 38.7138 38.676 38.3608V36.4434C38.6789 35.4259 38.2745 34.4495 37.553 33.7321C37.3717 33.5513 37.1727 33.389 36.9592 33.2476ZM6.71836 36.4434V37.7217H1.60514V36.4434C1.60338 35.7651 1.87286 35.1143 2.35359 34.6358C3.36593 33.6708 4.95758 33.6708 5.96992 34.6358C6.45064 35.1143 6.72012 35.7651 6.71836 36.4434ZM6.71836 30.0518C6.71836 31.4638 5.57372 32.6084 4.16175 32.6084C2.74978 32.6084 1.60514 31.4638 1.60514 30.0518C1.60514 28.6399 2.74978 27.4952 4.16175 27.4952C5.57372 27.4952 6.71836 28.6398 6.71836 30.0518ZM22.058 36.4434V37.7217H16.9448V36.4434C16.9431 35.7651 17.2125 35.1143 17.6933 34.6358C18.7056 33.6708 20.2972 33.6708 21.3096 34.6358C21.7903 35.1143 22.0598 35.7651 22.058 36.4434ZM22.058 30.0518C22.058 31.4638 20.9134 32.6084 19.5014 32.6084C18.0895 32.6084 16.9448 31.4638 16.9448 30.0518C16.9448 28.6399 18.0895 27.4952 19.5014 27.4952C20.9134 27.4952 22.058 28.6398 22.058 30.0518ZM19.5014 17.9079C14.9125 17.9079 11.1924 14.1879 11.1924 9.59893C11.1924 5.00997 14.9125 1.28994 19.5014 1.28994C24.0904 1.28994 27.8104 5.00997 27.8104 9.59893C27.8051 14.1857 24.0881 17.9026 19.5014 17.9079ZM32.2845 30.0518C32.2845 28.6399 33.4291 27.4952 34.8411 27.4952C36.2531 27.4952 37.3977 28.6399 37.3977 30.0518C37.3977 31.4638 36.2531 32.6084 34.8411 32.6084C33.4291 32.6084 32.2845 31.4638 32.2845 30.0518ZM37.3977 37.7217H32.2845V36.4434C32.2827 35.7651 32.5522 35.1143 33.0329 34.6358C34.0453 33.6708 35.6369 33.6708 36.6493 34.6358C37.13 35.1143 37.3995 35.7651 37.3977 36.4434V37.7217Z" fill="white"/>
    </g>
    <defs>
        <clipPath id="clip0">
            <rect width="39" height="39" fill="white"/>
        </clipPath>
    </defs>
</svg>
