<svg width="35" height="35" viewBox="0 0 35 35" fill="none" xmlns="http://www.w3.org/2000/svg">
    <g clip-path="url(#clip0)">
        <path d="M34.4873 20.9405C34.7705 20.9405 35 20.7111 35 20.4279V1.68575C35 1.05728 34.4887 0.545898 33.8601 0.545898H4.6249C3.99635 0.545898 3.48504 1.05721 3.48504 1.68575V6.15144H1.17116H1.14108C0.511857 6.15144 0 6.6633 0 7.29253V33.0649C0 33.8308 0.623142 34.4539 1.38908 34.4539H30.2143C30.9802 34.4539 31.6033 33.8308 31.6033 33.0649V28.7725H33.6134C34.3779 28.7725 34.9999 28.1505 34.9999 27.386V22.7976C34.9999 22.5144 34.7704 22.2849 34.4873 22.2849C34.2041 22.2849 33.9746 22.5144 33.9746 22.7976V27.386C33.9746 27.5852 33.8125 27.7472 33.6134 27.7472H31.6033V7.29253C31.6033 6.66337 31.0915 6.15151 30.4623 6.15151H9.75871C9.47557 6.15151 9.24603 6.38099 9.24603 6.66419C9.24603 6.94739 9.47557 7.17687 9.75871 7.17687H30.4623C30.5261 7.17687 30.578 7.22875 30.578 7.29253V9.22956H4.51033V7.17687H7.39322C7.67635 7.17687 7.90589 6.94739 7.90589 6.66419C7.90589 6.38099 7.67635 6.15151 7.39322 6.15151H4.51033V4.64431H33.9746V20.4278C33.9746 20.711 34.2041 20.9405 34.4873 20.9405ZM1.05543 7.29253C1.05543 7.22868 1.10731 7.17687 1.17109 7.17687H3.48497V9.22956H1.05543V7.29253ZM30.5781 10.2557V33.0649C30.5781 33.2654 30.4149 33.4285 30.2143 33.4285H1.38908C1.18852 33.4285 1.02535 33.2654 1.02535 33.0649V10.2557H30.5781ZM6.9599 3.61813H4.51033V1.68807C4.51033 1.62532 4.56146 1.57426 4.62421 1.57426H6.9599V3.61813ZM7.98526 3.61813V1.57125H33.8601C33.9232 1.57125 33.9746 1.62259 33.9746 1.68575V3.61813H7.98526Z" fill="white"/>
        <path d="M19.8345 16.3769H25.9513C26.2344 16.3769 26.4639 16.1474 26.4639 15.8642C26.4639 15.581 26.2344 15.3516 25.9513 15.3516H19.8345C19.5513 15.3516 19.3218 15.581 19.3218 15.8642C19.3218 16.1474 19.5513 16.3769 19.8345 16.3769Z" fill="white"/>
        <path d="M17.4751 20.4001H28.3112C28.5944 20.4001 28.8239 20.1706 28.8239 19.8874C28.8239 19.6042 28.5944 19.3748 28.3112 19.3748H17.4751C17.1919 19.3748 16.9624 19.6042 16.9624 19.8874C16.9624 20.1706 17.1919 20.4001 17.4751 20.4001Z" fill="white"/>
        <path d="M17.4751 23.0441H28.3112C28.5944 23.0441 28.8239 22.8147 28.8239 22.5315C28.8239 22.2483 28.5944 22.0188 28.3112 22.0188H17.4751C17.1919 22.0188 16.9624 22.2483 16.9624 22.5315C16.9624 22.8147 17.1919 23.0441 17.4751 23.0441Z" fill="white"/>
        <path d="M17.4751 25.6879H28.3112C28.5944 25.6879 28.8239 25.4585 28.8239 25.1753C28.8239 24.8921 28.5944 24.6626 28.3112 24.6626H17.4751C17.1919 24.6626 16.9624 24.8921 16.9624 25.1753C16.9624 25.4585 17.1919 25.6879 17.4751 25.6879Z" fill="white"/>
        <path d="M17.4751 28.332H28.3112C28.5944 28.332 28.8239 28.1025 28.8239 27.8193C28.8239 27.5361 28.5944 27.3066 28.3112 27.3066H17.4751C17.1919 27.3066 16.9624 27.5361 16.9624 27.8193C16.9624 28.1025 17.1919 28.332 17.4751 28.332Z" fill="white"/>
        <path d="M9.25817 28.3207C12.8306 28.3207 15.737 25.4142 15.737 21.8418C15.737 18.2694 12.8306 15.363 9.25817 15.363C5.6857 15.363 2.7793 18.2694 2.7793 21.8418C2.7793 25.4142 5.68577 28.3207 9.25817 28.3207ZM9.25817 16.3883C12.2653 16.3883 14.7117 18.8348 14.7117 21.8418C14.7117 24.8489 12.2653 27.2953 9.25817 27.2953C6.25108 27.2953 3.80465 24.8489 3.80465 21.8418C3.80472 18.8348 6.25115 16.3883 9.25817 16.3883Z" fill="white"/>
        <path d="M7.5319 24.8619C7.74053 25.0705 8.0145 25.1748 8.28855 25.1747C8.56252 25.1747 8.83663 25.0704 9.04519 24.8619L12.783 21.1241C13.0725 20.8347 13.2319 20.4499 13.2319 20.0405C13.2319 19.6311 13.0725 19.2463 12.7831 18.9569C12.4937 18.6675 12.1088 18.5081 11.6995 18.5081C11.2902 18.5081 10.9053 18.6674 10.6159 18.9568L8.28868 21.2841L7.89994 20.8954C7.30243 20.2979 6.33026 20.298 5.73275 20.8954C5.13531 21.4929 5.13531 22.4651 5.73275 23.0626L7.5319 24.8619ZM6.45781 21.6206C6.55665 21.5217 6.68653 21.4723 6.81641 21.4723C6.94622 21.4723 7.0761 21.5217 7.17494 21.6205L7.88456 22.3302C7.99249 22.4382 8.13597 22.4976 8.28861 22.4976C8.44126 22.4976 8.58481 22.4382 8.69274 22.3302L11.341 19.682C11.4367 19.5863 11.5641 19.5335 11.6996 19.5335C11.835 19.5335 11.9623 19.5862 12.0581 19.682C12.1539 19.7777 12.2066 19.9051 12.2066 20.0406C12.2066 20.176 12.1539 20.3033 12.0581 20.399L8.32026 24.1368C8.30283 24.1543 8.2744 24.1543 8.25697 24.1368L6.45788 22.3378C6.26012 22.14 6.26012 21.8182 6.45781 21.6206Z" fill="white"/>
    </g>
    <defs>
        <clipPath id="clip0">
            <rect width="35" height="35" fill="white"/>
        </clipPath>
    </defs>
</svg>
