<svg width="37" height="37" viewBox="0 0 37 37" fill="none" xmlns="http://www.w3.org/2000/svg">
    <path d="M15.0312 19.0781C14.075 19.0781 13.2969 19.8563 13.2969 20.8125C13.2969 21.7687 14.075 22.5469 15.0312 22.5469C15.9875 22.5469 16.7656 21.7687 16.7656 20.8125C16.7656 19.8563 15.9875 19.0781 15.0312 19.0781ZM15.0312 21.3906C14.7121 21.3906 14.4531 21.1316 14.4531 20.8125C14.4531 20.4934 14.7121 20.2344 15.0312 20.2344C15.3504 20.2344 15.6094 20.4934 15.6094 20.8125C15.6094 21.1316 15.3504 21.3906 15.0312 21.3906Z" fill="white"/>
    <path d="M10.4062 17.9219C11.3625 17.9219 12.1406 17.1437 12.1406 16.1875C12.1406 15.2313 11.3625 14.4531 10.4062 14.4531C9.45003 14.4531 8.67188 15.2313 8.67188 16.1875C8.67188 17.1437 9.45003 17.9219 10.4062 17.9219ZM10.4062 15.6094C10.7254 15.6094 10.9844 15.8684 10.9844 16.1875C10.9844 16.5066 10.7254 16.7656 10.4062 16.7656C10.0871 16.7656 9.82812 16.5066 9.82812 16.1875C9.82812 15.8684 10.0871 15.6094 10.4062 15.6094Z" fill="white"/>
    <path d="M8.83838 21.5588L15.775 14.6222L16.5925 15.4397L9.65585 22.3763L8.83838 21.5588Z" fill="white"/>
    <path d="M12.1406 27.1719H13.2969V28.3281H12.1406V27.1719Z" fill="white"/>
    <path d="M14.4531 26.5938H15.6094V27.75H14.4531V26.5938Z" fill="white"/>
    <path d="M9.82812 26.5938H10.9844V27.75H9.82812V26.5938Z" fill="white"/>
    <path d="M30.0625 21.3906C31.0187 21.3906 31.7969 20.6125 31.7969 19.6562C31.7969 18.7 31.0187 17.9219 30.0625 17.9219H28.9062C28.5871 17.9219 28.3281 17.6629 28.3281 17.3438C28.3281 17.0246 28.5871 16.7656 28.9062 16.7656H30.6406V17.3438H31.7969V15.6094H30.0625V14.4531H28.9062V15.6094C27.95 15.6094 27.1719 16.3875 27.1719 17.3438C27.1719 18.3 27.95 19.0781 28.9062 19.0781H30.0625C30.3816 19.0781 30.6406 19.3371 30.6406 19.6562C30.6406 19.9754 30.3816 20.2344 30.0625 20.2344H28.3281V19.6562H27.1719V21.3906H28.9062V22.5469H30.0625V21.3906Z" fill="white"/>
    <path d="M34.6875 24.8594H33.4578C35.2448 23.6476 36.4219 21.6005 36.4219 19.2834C36.4219 17.8953 36.001 16.5604 35.2055 15.4226L32.4374 11.4688L34.277 5.94948L30.9089 5.10716L29.9908 6.94386L29.1803 5.72748L24.6495 6.48252L26.5238 11.481L23.7638 15.4232C22.9678 16.561 22.5469 17.8953 22.5469 19.2834C22.5469 21.6005 23.7239 23.6476 25.5109 24.8594H25.4375C24.4813 24.8594 23.7031 25.6375 23.7031 26.5938V27.75C23.7031 27.9535 23.7447 28.1466 23.8095 28.3281H22.5469V27.75C22.5469 25.1964 21.571 22.8076 19.8089 20.9692C20.0794 20.1945 20.2344 19.366 20.2344 18.5C20.2344 17.634 20.0794 16.8055 19.8089 16.0308C21.571 14.1924 22.5469 11.8036 22.5469 9.25V4.04688H23.125C24.0812 4.04688 24.8594 3.26872 24.8594 2.3125C24.8594 1.35628 24.0812 0.578125 23.125 0.578125H2.3125C1.35628 0.578125 0.578125 1.35628 0.578125 2.3125C0.578125 3.26872 1.35628 4.04688 2.3125 4.04688H2.89062V9.25C2.89062 11.8036 3.8665 14.1924 5.62862 16.0308C5.35806 16.8055 5.20312 17.634 5.20312 18.5C5.20312 19.366 5.35806 20.1945 5.62862 20.9692C3.8665 22.8076 2.89062 25.1964 2.89062 27.75V32.9531H2.3125C1.35628 32.9531 0.578125 33.7313 0.578125 34.6875C0.578125 35.6437 1.35628 36.4219 2.3125 36.4219H21.9688H23.125H34.6875C35.6437 36.4219 36.4219 35.6437 36.4219 34.6875V33.5312C36.4219 32.575 35.6437 31.7969 34.6875 31.7969H34.003C34.0678 31.6153 34.1094 31.4223 34.1094 31.2188V30.0625C34.1094 29.859 34.0678 29.6659 34.003 29.4844H34.6875C35.6437 29.4844 36.4219 28.7062 36.4219 27.75V26.5938C36.4219 25.6375 35.6437 24.8594 34.6875 24.8594ZM28.6322 6.99127L30.1342 9.24364L31.5286 6.45534L32.7855 6.76927L31.3806 10.9844H27.5731L26.2261 7.39248L28.6322 6.99127ZM23.7031 19.2834C23.7031 18.1335 24.0517 17.0281 24.7108 16.0857L27.4731 12.1406H31.4963L34.258 16.0857C34.917 17.0281 35.2656 18.1335 35.2656 19.2834C35.2656 22.3584 32.7647 24.8594 29.6896 24.8594H29.2786C26.2041 24.8594 23.7031 22.3584 23.7031 19.2834ZM6.35938 18.5C6.35938 14.9937 9.21242 12.1406 12.7188 12.1406C16.2251 12.1406 19.0781 14.9937 19.0781 18.5C19.0781 22.0063 16.2251 24.8594 12.7188 24.8594C9.21242 24.8594 6.35938 22.0063 6.35938 18.5ZM1.73438 2.3125C1.73438 1.99338 1.99338 1.73438 2.3125 1.73438H23.125C23.4441 1.73438 23.7031 1.99338 23.7031 2.3125C23.7031 2.63162 23.4441 2.89062 23.125 2.89062H2.3125C1.99338 2.89062 1.73438 2.63162 1.73438 2.3125ZM21.3906 4.04688V6.35938H4.04688V4.04688H21.3906ZM4.04688 9.25V7.51562H21.3906V9.25C21.3906 11.3422 20.6529 13.3119 19.3024 14.8821C18.0219 12.5609 15.5516 10.9844 12.7188 10.9844C9.88594 10.9844 7.41561 12.5609 6.13506 14.8821C4.78456 13.3119 4.04688 11.3422 4.04688 9.25ZM6.13506 22.1179C7.41561 24.4391 9.88594 26.0156 12.7188 26.0156C15.5516 26.0156 18.0219 24.4391 19.3024 22.1179C20.6529 23.6881 21.3906 25.6578 21.3906 27.75V32.6837C19.4649 30.6505 16.8072 29.4844 13.9843 29.4844H11.4527C8.62967 29.4844 5.97203 30.6505 4.0463 32.6837V27.75C4.04688 25.6578 4.78456 23.6881 6.13506 22.1179ZM20.0147 32.9531H5.42281C7.0722 31.4766 9.20317 30.6406 11.4527 30.6406H13.9843C16.2337 30.6406 18.3653 31.4766 20.0147 32.9531ZM21.9688 35.2656H2.3125C1.99338 35.2656 1.73438 35.0066 1.73438 34.6875C1.73438 34.3684 1.99338 34.1094 2.3125 34.1094H23.125C23.4441 34.1094 23.7031 34.3684 23.7031 34.6875C23.7031 35.0066 23.4441 35.2656 23.125 35.2656H21.9688ZM35.2656 33.5312V34.6875C35.2656 35.0066 35.0066 35.2656 34.6875 35.2656H24.753C24.8178 35.0841 24.8594 34.891 24.8594 34.6875C24.8594 33.7313 24.0812 32.9531 23.125 32.9531H26.0156V34.1094H27.1719V32.9531H28.3281V34.1094H29.4844V32.9531H30.6406V34.1094H31.7969V32.9531H32.375H32.9531V34.1094H34.1094V32.9531H34.6875C35.0066 32.9531 35.2656 33.2121 35.2656 33.5312ZM32.9531 30.0625V31.2188C32.9531 31.5379 32.6941 31.7969 32.375 31.7969H22.5469V29.4844H23.7031V30.6406H24.8594V29.4844H25.4375H26.0156V30.6406H27.1719V29.4844H28.3281V30.6406H29.4844V29.4844H30.6406V30.6406H31.7969V29.4844H32.375C32.6941 29.4844 32.9531 29.7434 32.9531 30.0625ZM35.2656 27.75C35.2656 28.0691 35.0066 28.3281 34.6875 28.3281H32.375H25.4375C25.1184 28.3281 24.8594 28.0691 24.8594 27.75V26.5938C24.8594 26.2746 25.1184 26.0156 25.4375 26.0156H26.0156V27.1719H27.1719V26.0156H28.3281V27.1719H29.4844V26.0156H29.6896H30.6406V27.1719H31.7969V26.0156H32.9531V27.1719H34.1094V26.0156H34.6875C35.0066 26.0156 35.2656 26.2746 35.2656 26.5938V27.75Z" fill="white"/>
</svg>
