<svg width="41" height="41" viewBox="0 0 41 41" fill="none" xmlns="http://www.w3.org/2000/svg">
    <g clip-path="url(#clip0)">
        <path d="M40.5006 20.4C41.3206 19.0673 41.1148 17.3698 40.0001 16.2717L38.4018 14.6972C38.0392 14.3399 37.8518 13.8438 37.888 13.336L38.0482 11.0872C38.1599 9.51915 37.1866 8.10714 35.6816 7.65341L33.5651 7.01535C33.0744 6.86737 32.6762 6.51294 32.4725 6.0428L31.5866 3.99905C30.9673 2.57013 29.4081 1.75086 27.8803 2.05067L25.7329 2.47212C25.2275 2.57134 24.7076 2.44265 24.3068 2.11905L22.5973 0.738828C21.3821 -0.24237 19.6179 -0.24237 18.4027 0.738828L16.6932 2.11905C16.2923 2.44265 15.7724 2.57118 15.2671 2.47212L13.1194 2.05059C11.5917 1.75069 10.0328 2.56997 9.41326 3.99865L8.52687 6.04296C8.32315 6.51302 7.92484 6.86745 7.43437 7.01535L5.31822 7.65333C3.81323 8.10706 2.84004 9.51899 2.95175 11.087L3.11191 13.336C3.1481 13.8438 2.96072 14.3399 2.59813 14.6972L0.999687 16.2717C-0.11484 17.3698 -0.320641 19.0674 0.499359 20.3999L1.68123 22.3205C1.94757 22.7534 2.01107 23.2792 1.85556 23.763L1.16409 25.9134C0.68434 27.4054 1.29045 29.0062 2.63809 29.8063L4.55364 30.9436C4.99262 31.2042 5.29364 31.6423 5.3794 32.1456L5.75641 34.3571C6.02147 35.9119 7.3068 37.0523 8.88194 37.1307L11.0761 37.2397C11.5893 37.2652 12.0621 37.5144 12.373 37.9236L13.7108 39.6837C14.3558 40.5323 15.3587 40.9984 16.3803 40.9984C16.8546 40.9984 17.3331 40.8979 17.7815 40.6888L19.7648 39.7626C20.2321 39.5444 20.768 39.5444 21.2351 39.7626L23.2183 40.6888C24.6327 41.3491 26.3447 40.9265 27.2893 39.6836L28.6266 37.9239C28.9376 37.5146 29.4104 37.2653 29.9237 37.2399L32.1182 37.1308C33.6934 37.0525 34.9787 35.912 35.2437 34.3572L35.6207 32.1458C35.7064 31.6426 36.0074 31.2044 36.4464 30.9438L38.362 29.8065C39.7097 29.0064 40.3157 27.4056 39.836 25.9136L39.1445 23.7631C38.9889 23.2792 39.0524 22.7535 39.3188 22.3207L40.5006 20.4ZM37.9549 21.4812C37.4432 22.3131 37.3211 23.3233 37.6201 24.253L38.3115 26.4035C38.5611 27.1799 38.2457 28.013 37.5445 28.4294L35.6289 29.5666C34.7853 30.0675 34.2069 30.9094 34.0421 31.8764L33.6652 34.0878C33.5272 34.897 32.8584 35.4906 32.0386 35.5312L29.8442 35.6402C28.8577 35.6892 27.9492 36.1684 27.3516 36.9548L26.0143 38.7145C25.5227 39.3612 24.6317 39.5811 23.8957 39.2376L21.9125 38.3114C21.0147 37.8922 19.9849 37.8922 19.0872 38.3114L17.1039 39.2376C16.3679 39.5811 15.4769 39.3614 14.9854 38.7147L13.6476 36.9546C13.05 36.1683 12.1416 35.6892 11.1553 35.6402L8.96113 35.5312C8.14146 35.4905 7.47264 34.897 7.33467 34.0879L6.95774 31.8765C6.79286 30.9094 6.21454 30.0675 5.37091 29.5667L3.45536 28.4294C2.75404 28.0131 2.43853 27.18 2.68829 26.4035L3.37977 24.253C3.67862 23.3233 3.55666 22.3132 3.0448 21.4813L1.86293 19.5606C1.43619 18.8672 1.54334 17.9837 2.12334 17.4123L3.72178 15.8377C4.4187 15.1512 4.77849 14.1979 4.70907 13.2221L4.54891 10.9731C4.49077 10.1572 4.99719 9.42242 5.78043 9.18627L7.89658 8.54829C8.83918 8.26417 9.6044 7.58302 9.99599 6.6799L10.8824 4.63567C11.1602 3.99504 11.8008 3.58985 12.4814 3.58985C12.5908 3.58985 12.701 3.60034 12.811 3.62196L14.9587 4.04349C15.93 4.234 16.9288 3.98672 17.6989 3.36499L19.4083 1.98452C20.0407 1.47386 20.9588 1.47386 21.5912 1.98452L23.3007 3.36467C24.0709 3.98656 25.0698 4.23376 26.0411 4.04317L28.1885 3.62172C28.9839 3.46549 29.795 3.89198 30.1173 4.63559L31.0033 6.67934C31.3949 7.5827 32.1602 8.26385 33.1029 8.54805L35.2195 9.18611C36.0027 9.42218 36.5092 10.1571 36.4511 10.9731L36.2909 13.222C36.2214 14.1978 36.5812 15.151 37.2782 15.8376L38.8766 17.4122C39.4566 17.9837 39.5637 18.867 39.137 19.5606L37.9549 21.4812Z" fill="white"/>
        <path d="M10.8905 9.73393C10.5795 9.41971 10.0726 9.41714 9.75832 9.72825L9.74663 9.73994C9.4324 10.051 9.42984 10.5579 9.74094 10.8722C9.89758 11.0303 10.1037 11.1094 10.31 11.1094C10.5135 11.1094 10.7171 11.0322 10.8732 10.8779L10.8849 10.8662C11.1991 10.5551 11.2016 10.0482 10.8905 9.73393Z" fill="white"/>
        <path d="M35.454 17.7046C34.8913 14.6796 33.4397 11.9266 31.2561 9.74303C26.3312 4.81822 18.7154 3.86057 12.7355 7.41427C12.3553 7.64017 12.2303 8.13145 12.4562 8.51158C12.6822 8.89172 13.1734 9.01664 13.5536 8.79082C18.9033 5.61139 25.7173 6.46871 30.1239 10.8753C34.0639 14.8154 35.2071 20.6771 33.0362 25.8085C32.8639 26.2157 33.0544 26.6856 33.4616 26.8578C33.5635 26.9009 33.6692 26.9212 33.7732 26.9212C34.0852 26.9212 34.3817 26.7377 34.511 26.4323C35.6772 23.6757 36.0032 20.6576 35.454 17.7046Z" fill="white"/>
        <path d="M31.2592 30.1262C30.9482 29.8121 30.4412 29.8094 30.127 30.1206L30.1153 30.1322C29.8011 30.4433 29.7985 30.9502 30.1096 31.2645C30.2662 31.4226 30.4724 31.5017 30.6786 31.5017C30.8822 31.5017 31.0858 31.4245 31.2419 31.2702L31.2536 31.2585C31.5677 30.9474 31.5703 30.4405 31.2592 30.1262Z" fill="white"/>
        <path d="M28.5434 32.487C28.3175 32.1069 27.8262 31.982 27.4461 32.2078C25.2864 33.4913 22.8888 34.1169 20.5067 34.1168C16.9879 34.1166 13.5034 32.751 10.8757 30.1233C6.93573 26.1832 5.79253 20.3215 7.96337 15.1901C8.1357 14.7829 7.94519 14.3131 7.538 14.1408C7.13088 13.9687 6.66098 14.159 6.48873 14.5663C5.32248 17.323 4.99648 20.341 5.54573 23.2942C6.10844 26.3191 7.56002 29.0721 9.74359 31.2557C12.6804 34.1924 16.5739 35.7184 20.507 35.7184C23.1695 35.7184 25.8503 35.019 28.2641 33.5844C28.6442 33.3585 28.7692 32.8672 28.5434 32.487Z" fill="white"/>
        <path d="M23.8086 13.9456C23.4235 13.7282 22.9351 13.8641 22.7178 14.2492L15.2955 27.397C15.0781 27.7821 15.2139 28.2704 15.599 28.4877C15.7235 28.558 15.8585 28.5914 15.9919 28.5914C16.2713 28.5914 16.5428 28.4448 16.6898 28.1842L24.1121 15.0364C24.3295 14.6513 24.1937 14.163 23.8086 13.9456Z" fill="white"/>
        <path d="M25.3236 22.4563C23.4694 22.4563 21.9609 23.9647 21.9609 25.8189C21.9609 27.6731 23.4694 29.1816 25.3236 29.1816C27.1777 29.1816 28.6862 27.6731 28.6862 25.8189C28.6862 23.9647 27.1778 22.4563 25.3236 22.4563ZM25.3236 27.5803C24.3523 27.5803 23.5622 26.7901 23.5622 25.8189C23.5622 24.8476 24.3523 24.0575 25.3236 24.0575C26.2948 24.0575 27.085 24.8476 27.085 25.8189C27.085 26.7901 26.2948 27.5803 25.3236 27.5803Z" fill="white"/>
        <path d="M15.6766 11.8169C13.8225 11.8169 12.314 13.3253 12.314 15.1795C12.314 17.0337 13.8224 18.5422 15.6766 18.5422C17.5307 18.5422 19.0392 17.0337 19.0392 15.1795C19.0392 13.3253 17.5308 11.8169 15.6766 11.8169ZM15.6766 16.9409C14.7053 16.9409 13.9152 16.1507 13.9152 15.1795C13.9152 14.2082 14.7053 13.4181 15.6766 13.4181C16.6479 13.4181 17.438 14.2082 17.438 15.1795C17.438 16.1507 16.6479 16.9409 15.6766 16.9409Z" fill="white"/>
    </g>
    <defs>
        <clipPath id="clip0">
            <rect width="41" height="41" fill="white"/>
        </clipPath>
    </defs>
</svg>
