<svg width="36" height="36" viewBox="0 0 36 36" fill="none" xmlns="http://www.w3.org/2000/svg">
    <path d="M0.591049 17.992H0.612049C0.935591 17.9922 1.20101 17.7358 1.21204 17.4124C1.53663 8.13994 9.31657 0.886257 18.5891 1.21077C22.1557 1.33565 25.5899 2.59299 28.3938 4.80072H25.2007C24.8693 4.80072 24.6007 5.06936 24.6007 5.4007C24.6007 5.73205 24.8693 6.00069 25.2007 6.00069H30.0006H30.009C30.0559 5.99686 30.1022 5.98764 30.147 5.97309C30.1776 5.96866 30.2079 5.96206 30.2376 5.95329C30.2544 5.94609 30.267 5.93109 30.2832 5.92209C30.337 5.89577 30.3864 5.86112 30.4296 5.81949L30.4356 5.81529C30.4508 5.79444 30.4647 5.77262 30.477 5.7499C30.5084 5.71165 30.5349 5.6695 30.5556 5.6245C30.5721 5.57665 30.5822 5.52685 30.5856 5.4763C30.5925 5.45155 30.5975 5.42628 30.6006 5.4007V0.600813C30.6006 0.269471 30.3319 0.000827158 30.0006 0.000827158C29.6692 0.000827158 29.4006 0.269471 29.4006 0.600813V4.07593C21.7132 -2.22257 10.3752 -1.0967 4.07674 6.59078C1.57683 9.642 0.148709 13.4301 0.0120624 17.3722C0.0009627 17.7032 0.260082 17.9806 0.591049 17.992Z" fill="white"/>
    <path d="M5.4472 29.1657C5.22701 28.9171 4.84707 28.8942 4.59852 29.1144C4.34998 29.3346 4.32703 29.7145 4.54723 29.963C4.96024 30.4265 5.39658 30.8687 5.8546 31.2878C6.10366 31.5064 6.48271 31.4817 6.70133 31.2327C6.91372 30.9907 6.89722 30.6242 6.66398 30.4022C6.23754 30.0111 5.83142 29.5984 5.4472 29.1657Z" fill="white"/>
    <path d="M12.6077 33.9163C12.0592 33.7306 11.5207 33.5164 10.9944 33.2749C10.6975 33.1278 10.3375 33.2493 10.1904 33.5462C10.0433 33.8431 10.1648 34.2031 10.4617 34.3502C10.4719 34.3552 10.4823 34.36 10.4928 34.3644C11.0571 34.6242 11.6347 34.8541 12.2231 35.0532C12.5371 35.1594 12.8777 34.991 12.9839 34.677C13.0902 34.3631 12.9218 34.0225 12.6077 33.9163Z" fill="white"/>
    <path d="M9.45567 32.4685V32.4679C8.95701 32.1724 8.47364 31.8521 8.0073 31.5079C7.74713 31.3026 7.36989 31.3472 7.16462 31.6073C6.95935 31.8675 7.0039 32.2447 7.26407 32.45C7.27382 32.4577 7.28372 32.4651 7.29392 32.4721C7.79266 32.8414 8.30992 33.1848 8.84369 33.5011C9.12883 33.6701 9.497 33.576 9.66597 33.2908C9.83502 33.0056 9.74082 32.6374 9.45567 32.4685Z" fill="white"/>
    <path d="M4.36046 27.8114C4.02222 27.3412 3.70827 26.8539 3.41968 26.3516C3.25401 26.0642 2.88667 25.9655 2.5992 26.1311C2.31173 26.2968 2.21303 26.6642 2.3787 26.9516C2.68785 27.4887 3.02429 28.0095 3.38668 28.5122C3.58565 28.7772 3.96177 28.8306 4.22674 28.6317C4.48413 28.4384 4.54315 28.0764 4.36046 27.8114Z" fill="white"/>
    <path d="M2.68757 25.0507C2.68757 24.9671 2.67002 24.8844 2.6362 24.8079L2.635 24.8037C2.40018 24.2749 2.19288 23.7341 2.01401 23.1838C1.92701 22.8641 1.59725 22.6754 1.27753 22.7624C0.957811 22.8494 0.769116 23.1792 0.856189 23.4989C0.861289 23.5175 0.867214 23.5359 0.874038 23.554C1.06551 24.145 1.28743 24.7258 1.53882 25.2939C1.63505 25.5111 1.85029 25.6511 2.08781 25.6509C2.41915 25.6508 2.68765 25.3821 2.68757 25.0507Z" fill="white"/>
    <path d="M1.10344 22.2159C1.10351 22.2159 1.10366 22.2159 1.10374 22.2159C1.42751 22.1469 1.6342 21.8287 1.56573 21.5049C1.44618 20.9381 1.35566 20.3656 1.29453 19.7895C1.25959 19.4598 0.963942 19.2209 0.63425 19.2558C0.304557 19.2908 0.0656126 19.5864 0.100562 19.9161C0.16626 20.5331 0.263533 21.1463 0.392155 21.7533C0.460853 22.0775 0.779296 22.2846 1.10344 22.2159Z" fill="white"/>
    <path d="M35.0403 21.6036C35.04 21.6035 35.0398 21.6035 35.0396 21.6034C34.718 21.5238 34.3927 21.7198 34.313 22.0414C34.174 22.6039 34.006 23.1588 33.8096 23.704C33.6973 24.0158 33.859 24.3596 34.1708 24.472C34.4827 24.5843 34.8264 24.4226 34.9388 24.1108C35.1493 23.5269 35.3295 22.9325 35.4788 22.33C35.5583 22.0083 35.3619 21.6832 35.0403 21.6036Z" fill="white"/>
    <path d="M15.9905 34.68C15.4154 34.6115 14.8443 34.5134 14.2794 34.386C13.9561 34.3129 13.6348 34.5157 13.5618 34.839C13.4887 35.1622 13.6915 35.4835 14.0148 35.5566C14.6203 35.6931 15.2325 35.7982 15.8489 35.8716C15.8728 35.8745 15.8968 35.8758 15.9209 35.8758C16.2523 35.8751 16.5203 35.6058 16.5196 35.2745C16.519 34.971 16.2919 34.7158 15.9905 34.68Z" fill="white"/>
    <path d="M33.934 25.0256C33.6357 24.8816 33.2773 25.0065 33.133 25.3046C32.8807 25.8262 32.6016 26.3343 32.2966 26.8268C32.1269 27.1115 32.2202 27.4797 32.5049 27.6493C32.7826 27.8148 33.1417 27.7305 33.3166 27.4586C33.6431 26.9307 33.9421 26.3861 34.2123 25.8272C34.3569 25.529 34.2322 25.1702 33.934 25.0256Z" fill="white"/>
    <path d="M32.1616 28.146C31.9023 27.9398 31.5248 27.9828 31.3186 28.2423C31.315 28.2468 31.3114 28.2513 31.308 28.2559V28.2547C30.954 28.7139 30.5765 29.1545 30.177 29.5747C29.9486 29.8149 29.9581 30.1949 30.1983 30.4233C30.4385 30.6518 30.8185 30.6423 31.047 30.402C31.4742 29.9518 31.8783 29.4802 32.2578 28.9891C32.464 28.7297 32.4209 28.3523 32.1616 28.146Z" fill="white"/>
    <path d="M35.4096 18.0286C35.0837 18.012 34.8059 18.2628 34.7893 18.5887C34.789 18.5948 34.7888 18.6009 34.7886 18.607C34.7683 19.186 34.718 19.7635 34.638 20.3373C34.5928 20.6652 34.8215 20.9676 35.1492 21.0135C35.177 21.0176 35.2051 21.0196 35.2332 21.0195C35.5322 21.0191 35.7853 20.7985 35.8266 20.5023C35.912 19.8877 35.9659 19.2692 35.988 18.649C35.9995 18.318 35.7406 18.0403 35.4096 18.0286Z" fill="white"/>
    <path d="M28.9197 30.7681V30.7699C28.4781 31.1468 28.0175 31.5009 27.5397 31.8306C27.2665 32.0195 27.1982 32.3941 27.387 32.6673C27.5759 32.9405 27.9505 33.0089 28.2237 32.82C28.7347 32.4652 29.2273 32.0847 29.6997 31.68C29.9515 31.4647 29.9811 31.0859 29.7657 30.8341C29.5504 30.5822 29.1715 30.5527 28.9197 30.7681Z" fill="white"/>
    <path d="M22.8666 34.0848C22.3121 34.2519 21.7494 34.39 21.1806 34.4988C20.8552 34.5614 20.6421 34.8759 20.7048 35.2013C20.759 35.4834 21.0056 35.6874 21.2928 35.688C21.3309 35.6881 21.3688 35.6847 21.4062 35.6778C22.016 35.5612 22.6192 35.4129 23.2134 35.2332C23.5281 35.1294 23.6992 34.7902 23.5954 34.4755C23.4954 34.1719 23.1748 34.0001 22.8666 34.0848Z" fill="white"/>
    <path d="M19.4908 34.7349C19.4798 34.7355 19.4689 34.7365 19.4579 34.7377L19.4609 34.7401C18.9809 34.7809 18.4895 34.8001 17.9999 34.8001H17.7257C17.3985 34.8047 17.1311 35.0624 17.1144 35.3893C17.1084 35.7206 17.3721 35.994 17.7033 36C17.7034 36 17.7035 36 17.7035 36H17.9999C18.5243 36 19.0499 35.9766 19.5599 35.9328C19.8907 35.9138 20.1435 35.6302 20.1244 35.2993C20.1052 34.9685 19.8216 34.7158 19.4908 34.7349Z" fill="white"/>
    <path d="M26.0636 32.7414H26.0642C25.5562 33.0196 25.0344 33.2715 24.5006 33.4962C24.1936 33.6208 24.0456 33.9706 24.1701 34.2777C24.2946 34.5847 24.6445 34.7327 24.9516 34.6082C24.9561 34.6064 24.9605 34.6045 24.9649 34.6025C25.5369 34.3619 26.096 34.092 26.6401 33.7938C26.9307 33.6345 27.0372 33.2699 26.878 32.9793C26.7189 32.6887 26.3542 32.5822 26.0636 32.7414Z" fill="white"/>
    <path d="M18.0001 5.40063C11.0415 5.40063 5.40039 11.0417 5.40039 18.0003C5.40039 24.959 11.0415 30.6001 18.0001 30.6001C24.9587 30.6001 30.5998 24.959 30.5998 18.0003C30.5919 11.045 24.9554 5.40858 18.0001 5.40063ZM27.5999 18.6003H29.3692C29.0575 24.414 24.4137 29.0578 18.6001 29.3695V27.6001C18.6001 27.2688 18.3314 27.0001 18.0001 27.0001C17.6688 27.0001 17.4001 27.2688 17.4001 27.6001V29.3695C11.5865 29.0578 6.94265 24.414 6.63096 18.6003H8.40032C8.73166 18.6003 9.00031 18.3317 9.00031 18.0003C9.00031 17.669 8.73166 17.4004 8.40032 17.4004H6.63096C6.94265 11.5867 11.5865 6.9429 17.4001 6.63121V8.40057C17.4001 8.73191 17.6688 9.00055 18.0001 9.00055C18.3314 9.00055 18.6001 8.73191 18.6001 8.40057V6.63121C24.4137 6.9429 29.0575 11.5867 29.3692 17.4004H27.5999C27.2685 17.4004 26.9999 17.669 26.9999 18.0003C26.9999 18.3317 27.2685 18.6003 27.5999 18.6003Z" fill="white"/>
    <path d="M18.6 16.3109V10.8007C18.6 10.4693 18.3313 10.2007 18 10.2007C17.6686 10.2007 17.4 10.4693 17.4 10.8007V16.3109C16.8919 16.4924 16.4919 16.8924 16.3104 17.4005H13.2001C12.8687 17.4005 12.6001 17.6692 12.6001 18.0005C12.6001 18.3318 12.8687 18.6005 13.2001 18.6005H16.3104C16.6392 19.5362 17.6643 20.0281 18.6 19.6994C19.5356 19.3706 20.0276 18.3455 19.6988 17.4098C19.5182 16.8958 19.114 16.4916 18.6 16.3109ZM18 18.6005C17.6686 18.6005 17.4 18.3318 17.4 18.0005C17.4 17.6692 17.6686 17.4005 18 17.4005C18.3313 17.4005 18.6 17.6692 18.6 18.0005C18.6 18.3318 18.3314 18.6005 18 18.6005Z" fill="white"/>
</svg>
