<svg width="43" height="43" viewBox="0 0 43 43" fill="none" xmlns="http://www.w3.org/2000/svg">
    <g clip-path="url(#clip0)">
        <path d="M19.0113 22.6661L7.97616 17.7975C7.55884 17.6135 7.08887 17.9195 7.08887 18.3759C7.08887 18.7916 7.08887 32.4088 7.08887 32.7538C7.08887 33.2107 7.35905 33.6252 7.77712 33.8097L18.501 38.5411C18.5827 38.5771 18.6696 38.5948 18.7562 38.5948C18.8769 38.5948 18.9971 38.5603 19.1014 38.4923C19.2805 38.3755 19.3884 38.1763 19.3884 37.9627C19.3884 37.5958 19.3884 23.6592 19.3884 23.2445C19.3883 22.994 19.2405 22.7672 19.0113 22.6661ZM18.1238 36.9927L8.35309 32.682V23.2647L18.1238 27.5755V36.9927ZM18.1238 26.1936L8.35309 21.8826V19.3458L18.1238 23.6566V26.1936Z" fill="white"/>
        <path d="M21.674 6.68852V5.27892C22.2106 5.31907 22.3949 5.5753 22.6191 5.5753C22.9155 5.5753 23.0436 5.20686 23.0436 5.02269C23.0436 4.55808 22.1946 4.40599 21.674 4.38995V4.18166C21.674 4.07769 21.5379 3.98145 21.4018 3.98145C21.2495 3.98145 21.1295 4.07761 21.1295 4.18166V4.40599C20.3286 4.51013 19.5757 4.95054 19.5757 5.96768C19.5757 6.99279 20.4007 7.30513 21.1295 7.57741V9.17119C20.4248 9.09115 20.1844 8.57053 19.88 8.57053C19.6318 8.57053 19.4316 8.90689 19.4316 9.13112C19.4316 9.5796 20.1604 10.1002 21.1296 10.1242V10.3485C21.1296 10.4526 21.2497 10.5487 21.4018 10.5487C21.538 10.5487 21.6741 10.4526 21.6741 10.3485V10.1002C22.5712 9.95602 23.1878 9.38736 23.1878 8.40231C23.1877 7.3132 22.3867 6.95282 21.674 6.68852ZM21.1935 6.51232C20.825 6.36812 20.5527 6.21594 20.5527 5.86362C20.5527 5.55926 20.793 5.36702 21.1935 5.30303V6.51232ZM21.61 9.16329V7.76974C21.9544 7.922 22.2107 8.11416 22.2107 8.50662C22.2107 8.88303 21.9624 9.09115 21.61 9.16329Z" fill="white"/>
        <path d="M38.0228 26.0912C37.6736 26.0912 37.3907 26.3742 37.3907 26.7234V34.5692C37.3907 34.6283 37.3557 34.682 37.3017 34.7058L22.1322 41.3984V20.743L26.0894 18.9971L37.3906 14.011V23.7732C37.3906 24.1224 37.6736 24.4054 38.0228 24.4054C38.372 24.4054 38.6549 24.1224 38.6549 23.7732C38.6549 23.4082 38.6548 12.9036 38.6548 13.0402C38.6549 12.7884 38.5027 12.5604 38.275 12.4614L29.0541 8.45135C29.4913 4.36575 26.6897 0.804802 22.9324 0.0143388C22.5907 -0.0581399 22.2556 0.16106 22.1837 0.502793C22.1117 0.844442 22.3304 1.17962 22.6722 1.25152C27.4816 2.26361 29.5247 8.14757 26.2063 11.9118H24.8731C28.834 8.68163 26.5957 2.05525 21.3259 2.05525C16.1132 2.05525 13.7815 8.58656 17.7979 11.9118H16.4455C13.1501 8.17277 15.1455 2.26664 19.9821 1.25101C20.3239 1.17929 20.5426 0.844106 20.4709 0.502457C20.3991 0.16064 20.0637 -0.0582239 19.7224 0.0136669C15.8557 0.825546 13.0995 4.51801 13.6139 8.59588L4.72524 12.4614C4.50294 12.558 4.34958 12.7805 4.3458 13.0318C4.3458 13.0344 4.34521 13.0369 4.34521 13.0395C4.34521 13.0398 4.3453 13.04 4.3453 13.0403C4.3453 13.0405 4.34521 13.0408 4.34521 13.0411V34.5692C4.34521 35.129 4.67611 35.6367 5.18817 35.8626L21.2449 42.9468C21.4021 43.016 21.5899 43.0196 21.7554 42.9468L37.8122 35.8627C38.3242 35.6366 38.655 35.129 38.655 34.5693V26.7234C38.6551 26.3742 38.3721 26.0912 38.0228 26.0912ZM21.3259 3.31947C23.2185 3.31947 24.8674 4.53246 25.4289 6.33787C26.5803 10.0392 22.6562 13.1274 19.3676 11.4391C15.3521 9.37518 16.8485 3.31947 21.3259 3.31947ZM5.60943 34.5692V14.011C6.04002 14.2009 20.5186 20.5889 20.8678 20.743V41.3985L5.69846 34.7058C5.64437 34.682 5.60943 34.6283 5.60943 34.5692ZM21.5001 19.64L6.553 13.0453L13.8826 9.85783C14.1012 10.5809 14.4271 11.2726 14.8542 11.9118H14.49C14.1408 11.9118 13.8578 12.1948 13.8578 12.544C13.8578 12.8932 14.1408 13.1761 14.49 13.1761C14.9644 13.1761 27.277 13.1761 28.1646 13.1761C28.5138 13.1761 28.7967 12.8932 28.7967 12.544C28.7967 12.1948 28.5138 11.9118 28.1646 11.9118H27.7975C28.2509 11.2332 28.59 10.4949 28.8081 9.72321L36.4474 13.0454L21.5001 19.64Z" fill="white"/>
        <path d="M16.5185 29.3902L10.4168 26.6981C10.0972 26.5574 9.72417 26.702 9.58324 27.0214C9.44232 27.3408 9.58702 27.714 9.90642 27.855L16.0081 30.547C16.3292 30.6884 16.7014 30.5419 16.8417 30.2238C16.9826 29.9042 16.8379 29.5312 16.5185 29.3902Z" fill="white"/>
        <path d="M16.5185 32.2355L10.4168 29.5433C10.0973 29.4027 9.72417 29.5472 9.58324 29.8666C9.44232 30.1861 9.58702 30.5592 9.90642 30.7001L16.0081 33.3922C16.3278 33.5333 16.7009 33.3883 16.8417 33.069C16.9826 32.7494 16.8379 32.3764 16.5185 32.2355Z" fill="white"/>
    </g>
    <defs>
        <clipPath id="clip0">
            <rect width="43" height="43" fill="white"/>
        </clipPath>
    </defs>
</svg>
