<svg width="32" height="32" viewBox="0 0 32 32" fill="none" xmlns="http://www.w3.org/2000/svg">
    <g opacity="0.5">
        <path d="M29.5 1H2.5C2.10232 1.00046 1.72106 1.15865 1.43985 1.43985C1.15865 1.72106 1.00046 2.10232 1 2.5V12.5H3V3H29V29H3V19H1V29.5C1.00046 29.8977 1.15865 30.2789 1.43985 30.5601C1.72106 30.8414 2.10232 30.9995 2.5 31H29.5C29.8977 30.9995 30.2789 30.8414 30.5601 30.5601C30.8414 30.2789 30.9995 29.8977 31 29.5V2.5C30.9995 2.10232 30.8414 1.72106 30.5601 1.43985C30.2789 1.15865 29.8977 1.00046 29.5 1Z" fill="white"/>
        <path d="M13.0861 22.7067L14.5002 24.1208L22.9142 15.7069L14.5002 7.29297L13.0861 8.70709L19.0859 14.707H1V16.707H19.0857L13.0861 22.7067Z" fill="white"/>
    </g>
</svg>
