<svg width="77" height="77" viewBox="0 0 77 77" fill="none" xmlns="http://www.w3.org/2000/svg">
    <path d="M20.4605 51.6314C19.873 51.0441 18.9208 51.0441 18.3335 51.6314L12.5504 57.4145L9.46871 54.3328C8.88143 53.7456 7.92931 53.7457 7.34188 54.333C6.75445 54.9203 6.7546 55.8725 7.34188 56.4598L11.4869 60.6047C11.7807 60.8984 12.1655 61.0452 12.5504 61.0452C12.9352 61.0452 13.3202 60.8984 13.6139 60.6049L20.4605 53.7584C21.0477 53.1709 21.0477 52.2185 20.4605 51.6314Z" fill="#303030"/>
    <path d="M58.6716 25.7768C58.6521 25.6805 58.622 25.5858 58.5844 25.4956C58.5468 25.4053 58.5017 25.3166 58.446 25.2354C58.3919 25.1527 58.3287 25.076 58.2596 25.0068C58.1904 24.9376 58.1137 24.8744 58.031 24.8203C57.9497 24.7662 57.8625 24.7195 57.7723 24.6819C57.6805 24.6443 57.5858 24.6158 57.4895 24.5962C57.2955 24.5571 57.097 24.5571 56.903 24.5962C56.8068 24.6158 56.712 24.6443 56.6218 24.6819C56.5301 24.7195 56.4428 24.7662 56.3616 24.8203C56.2789 24.8744 56.2022 24.9376 56.133 25.0068C56.0638 25.076 56.0007 25.1527 55.9465 25.2354C55.8924 25.3166 55.8458 25.4053 55.8082 25.4956C55.7706 25.5858 55.742 25.6805 55.7225 25.7768C55.7029 25.8745 55.6924 25.9723 55.6924 26.0701C55.6924 26.1693 55.7029 26.2671 55.7225 26.3648C55.742 26.4611 55.7706 26.5558 55.8082 26.646C55.8458 26.7363 55.8924 26.8235 55.9465 26.9047C56.0007 26.9874 56.0638 27.0641 56.133 27.1333C56.2022 27.204 56.2789 27.2657 56.3616 27.3213C56.4428 27.3754 56.5301 27.4221 56.6218 27.4597C56.712 27.4973 56.8068 27.5258 56.903 27.5454C56.9993 27.5649 57.0985 27.574 57.1963 27.574C57.294 27.574 57.3933 27.5649 57.4895 27.5454C57.5858 27.5258 57.6805 27.4973 57.7723 27.4597C57.8625 27.4221 57.9499 27.3754 58.031 27.3213C58.1137 27.2657 58.1904 27.204 58.2596 27.1333C58.3287 27.0641 58.3919 26.9874 58.446 26.9047C58.5017 26.8235 58.5468 26.7363 58.5844 26.646C58.622 26.5558 58.6521 26.4611 58.6716 26.3648C58.6912 26.2671 58.7002 26.1693 58.7002 26.0701C58.7002 25.9724 58.6912 25.8747 58.6716 25.7768Z" fill="#303030"/>
    <path d="M75.4961 6.98047H17.835C17.0044 6.98047 16.3311 7.65377 16.3311 8.48438V13.7509H10.2503C9.41972 13.7509 8.74642 14.4242 8.74642 15.2548V43.2075C3.62592 45.2592 0 50.2731 0 56.1179C0 63.7832 6.2361 70.0194 13.9015 70.0194C21.0587 70.0194 26.97 64.5825 27.7221 57.6218H67.9116C68.7422 57.6218 69.4155 56.9485 69.4155 56.1179V50.8515H75.4961C76.3267 50.8515 77 50.1782 77 49.3476V8.48438C77 7.65377 76.3267 6.98047 75.4961 6.98047ZM13.9015 67.0116C7.89476 67.0116 3.00781 62.1246 3.00781 56.1179C3.00781 50.1111 7.89476 45.2244 13.9015 45.2244C19.9083 45.2244 24.7952 50.1113 24.7952 56.1179C24.7952 62.1245 19.9081 67.0116 13.9015 67.0116ZM17.81 42.7758V39.8313H32.0926V47.1337H24.5016C22.7654 45.0885 20.4494 43.5502 17.81 42.7758ZM66.4075 54.614H27.7221C27.5508 53.0286 27.1118 51.5224 26.4515 50.1414H33.5964C34.427 50.1414 35.1003 49.4681 35.1003 48.6375V38.3273C35.1003 37.4967 34.427 36.8234 33.5964 36.8234H16.306C15.4753 36.8234 14.802 37.4967 14.802 38.3273V42.2453C14.5043 42.2262 14.2039 42.2164 13.9014 42.2164C13.1714 42.2164 12.4541 42.2731 11.7542 42.382V32.6246H66.4075V54.614ZM66.4075 29.6171H11.7542V27.5747H51.0806C51.9112 27.5747 52.5845 26.9014 52.5845 26.0708C52.5845 25.2401 51.9112 24.5668 51.0806 24.5668H11.7542V22.5244H66.4075V29.6171ZM66.4075 19.5166H11.7542V16.7587H66.4075V19.5166ZM73.9922 47.8437H69.4153V15.2548C69.4153 14.4242 68.7421 13.7509 67.9114 13.7509H19.3389V9.98828H73.9922V47.8437Z" fill="#303030"/>
    <path d="M55.4983 35.1553C53.9333 35.1553 52.4677 35.5893 51.2156 36.3432C49.9255 35.5633 48.4606 35.1553 46.9249 35.1553C42.3334 35.1553 38.5977 38.8908 38.5977 43.4826C38.5977 48.0741 42.3332 51.8098 46.9249 51.8098C48.4606 51.8098 49.9255 51.4018 51.2156 50.6219C52.4677 51.3758 53.9333 51.8098 55.4983 51.8098C60.0898 51.8098 63.8255 48.0743 63.8255 43.4826C63.8255 38.8908 60.0898 35.1553 55.4983 35.1553ZM48.8229 48.4551C48.2243 48.6838 47.5849 48.8016 46.9249 48.8016C43.9917 48.8017 41.6055 46.4155 41.6055 43.4824C41.6055 40.5493 43.9917 38.1629 46.9249 38.1629C47.585 38.1629 48.2243 38.2808 48.8229 38.5094C47.7858 39.898 47.171 41.6198 47.171 43.4823C47.171 45.3447 47.7856 47.0667 48.8229 48.4551ZM55.4983 48.8017C52.5652 48.8017 50.1788 46.4155 50.1788 43.4823C50.1788 40.5492 52.565 38.1628 55.4983 38.1628C58.4315 38.1628 60.8177 40.549 60.8177 43.4823C60.8177 46.4155 58.4313 48.8017 55.4983 48.8017Z" fill="#303030"/>
</svg>
