<svg width="73" height="73" viewBox="0 0 73 73" fill="none" xmlns="http://www.w3.org/2000/svg">
    <g clip-path="url(#clip0)">
        <path d="M61.4607 46.2694V20.1147C61.4607 19.3024 60.7961 18.7412 59.9839 18.7412H54.2685C53.4563 18.7412 52.7474 19.3024 52.7474 20.1147V43.7145C51.8022 43.744 50.857 43.8622 49.9414 44.0837V27.8238C49.9414 27.0115 49.2473 26.4208 48.435 26.4208H42.7197C41.9074 26.4208 41.228 26.9967 41.228 27.8238V49.8729C39.4706 52.3392 38.5254 55.3077 38.5402 58.35C38.5402 66.443 45.0974 73.0002 53.1756 73.0002C61.2687 73.0002 67.8259 66.443 67.8259 58.3647C67.8259 53.5207 65.4482 49.0016 61.4607 46.2694ZM55.701 21.6949H58.507V44.704C57.6062 44.3496 56.661 44.0837 55.701 43.936V21.6949ZM44.1817 29.3744H46.9877V45.1027C45.9982 45.5606 45.0531 46.1217 44.1817 46.7863V29.3744ZM63.2477 64.3016C61.1358 67.8608 57.3108 70.0317 53.1904 70.0317C46.7366 70.0317 41.5086 64.789 41.5086 58.35C41.5086 53.6241 44.3589 49.356 48.7304 47.5543C48.9076 47.5247 49.07 47.4509 49.2177 47.3623C50.4878 46.8897 51.8465 46.6534 53.2052 46.6534C53.5153 46.6534 53.8107 46.6682 54.1208 46.6977H54.1356C55.9078 46.8306 57.6357 47.3771 59.1568 48.2927C64.7096 51.586 66.541 58.7487 63.2477 64.3016Z" fill="white"/>
        <path d="M53.2052 57.1535C52.1715 57.1535 51.3444 56.3264 51.3444 55.2926C51.3444 54.2589 52.1567 53.4318 53.1905 53.4171C54.2243 53.4171 55.0513 54.2589 55.0513 55.2779C55.0513 56.0901 55.7159 56.7547 56.5281 56.7547C57.3551 56.7547 58.0197 56.1049 58.0345 55.2779C58.0345 53.2989 56.8235 51.5119 54.9774 50.7883V49.5625C54.9774 48.7503 54.3129 48.0857 53.5006 48.0857C52.6883 48.0857 52.0238 48.7503 52.0238 49.5625V50.6258C49.4541 51.2904 47.9034 53.9192 48.568 56.4889C49.0996 58.6155 51.0048 60.0924 53.1905 60.0924C54.2095 60.0924 55.0365 60.9342 55.0365 61.9532C55.0365 62.9722 54.1947 63.7992 53.1757 63.7992C52.1567 63.7992 51.3297 62.9574 51.3297 61.9384C51.3297 61.1261 50.6651 60.4616 49.8528 60.4616C49.0406 60.4616 48.3908 61.1114 48.4055 61.9236V61.9384C48.4203 64.1241 49.8971 66.044 52.009 66.5904V67.255C52.009 68.0673 52.6736 68.7318 53.4858 68.7318C54.2981 68.7318 54.9627 68.0673 54.9627 67.255V66.4427C57.4438 65.468 58.6548 62.6768 57.6948 60.2105C56.9712 58.3645 55.1842 57.1535 53.2052 57.1535Z" fill="white"/>
        <path d="M25.2775 38.2354H19.5178C18.7056 38.2354 18.041 38.8999 18.041 39.7122V62.8985C18.041 63.7108 18.7056 64.3753 19.5178 64.3753H25.2775C26.0898 64.3753 26.7543 63.7108 26.7543 62.8985V39.7122C26.7543 38.8999 26.0898 38.2354 25.2775 38.2354ZM23.8007 61.5694H20.9947V41.189H23.8007V61.5694Z" fill="white"/>
        <path d="M36.9445 34.8386H31.1848C30.3726 34.8386 29.708 35.5032 29.708 36.3155V63.0462C29.708 63.8585 30.3726 64.523 31.1848 64.523H36.9445C37.7568 64.523 38.4213 63.8585 38.4213 63.0462V36.3155C38.4213 35.5032 37.7568 34.8386 36.9445 34.8386ZM35.4677 61.5694H32.6617V37.7923H35.4677V61.5694Z" fill="white"/>
        <path d="M13.6105 50.936H7.85086C7.0386 50.936 6.37402 51.6006 6.37402 52.4129V62.8984C6.37402 63.7107 7.0386 64.3752 7.85086 64.3752H13.6105C14.4228 64.3752 15.0874 63.7107 15.0874 62.8984V52.4129C15.0874 51.6006 14.4228 50.936 13.6105 50.936ZM12.1337 61.5693H9.3277V53.8897H12.1337V61.5693Z" fill="white"/>
        <path d="M61.2392 0L51.1376 0.0147684C50.3254 0 49.6608 0.664576 49.646 1.47684C49.6313 2.2891 50.2958 2.95367 51.1081 2.96844C51.1229 2.96844 51.1229 2.96844 51.1376 2.96844L57.68 2.95367L41.6563 18.9183L36.0591 13.3654C35.7785 13.0995 35.3946 12.9666 35.0106 12.9814C34.6266 12.9666 34.2426 13.0995 33.962 13.3654L5.60678 41.7206C5.03081 42.2966 5.03081 43.227 5.60678 43.7882C5.88738 44.0688 6.25659 44.2165 6.65533 44.2165C7.05408 44.2165 7.42329 44.0688 7.70389 43.7882L35.0253 16.4667L40.6226 22.1082C40.8884 22.4036 41.2724 22.5661 41.6711 22.5808C42.0699 22.5661 42.4391 22.3888 42.7197 22.1082L59.7623 5.05078L59.7476 11.6227C59.7476 12.4497 60.3974 13.1143 61.2244 13.1438C62.0514 13.1291 62.7012 12.4497 62.7012 11.6227L62.716 1.4916C62.716 0.679345 62.0514 0 61.2392 0Z" fill="white"/>
    </g>
    <defs>
        <clipPath id="clip0">
            <rect width="73" height="73" fill="white"/>
        </clipPath>
    </defs>
</svg>
