<svg width="66" height="66" viewBox="0 0 66 66" fill="none" xmlns="http://www.w3.org/2000/svg">
    <path d="M59.5705 13.6331L61.117 15.1796L65.492 10.8046C65.6971 10.5995 65.8123 10.3214 65.8123 10.0313C65.8123 9.74131 65.6971 9.46316 65.492 9.25806L61.117 4.88306L59.5705 6.42962L62.0784 8.93759H49.4062V11.1251H62.0784L59.5705 13.6331Z" fill="#303030"/>
    <path d="M53.0077 23.9294L54.5543 22.3828L52.0463 19.8748H64.7185V17.6873H52.0463L54.5543 15.1794L53.0077 13.6328L48.6327 18.0078C48.4277 18.2129 48.3125 18.4911 48.3125 18.7811C48.3125 19.0711 48.4277 19.3493 48.6327 19.5544L53.0077 23.9294Z" fill="#303030"/>
    <path d="M64.5328 32.0922C63.7575 31.3144 62.7167 30.8584 61.6193 30.8158C60.5219 30.7732 59.4489 31.1471 58.6156 31.8625C58.2331 31.2101 57.6867 30.669 57.0305 30.293C56.3743 29.917 55.6313 29.719 54.875 29.7188C54.3858 29.7118 53.8997 29.7972 53.4422 29.9703C52.9352 30.1494 52.4674 30.4242 52.0641 30.7797C51.6792 30.1262 51.131 29.5839 50.4733 29.2062C49.8156 28.8284 49.071 28.6282 48.3125 28.625C47.5428 28.6272 46.7876 28.8349 46.125 29.2266V11.125C46.125 9.96468 45.6641 8.85188 44.8436 8.03141C44.0231 7.21094 42.9103 6.75 41.75 6.75C40.9803 6.75223 40.2251 6.9599 39.5625 7.35156V3.46875C39.5599 2.59931 39.2134 1.76622 38.5986 1.15142C37.9838 0.536633 37.1507 0.190097 36.2812 0.1875H10.0312C9.16181 0.190097 8.32872 0.536633 7.71392 1.15142C7.09913 1.76622 6.7526 2.59931 6.75 3.46875V25.3438H5.65625C4.20585 25.3438 2.81485 25.9199 1.78926 26.9455C0.76367 27.9711 0.1875 29.3621 0.1875 30.8125V35.2859L2.375 58.2109V64.7188C2.375 65.0088 2.49023 65.287 2.69535 65.4921C2.90047 65.6973 3.17867 65.8125 3.46875 65.8125H27.5312C27.8213 65.8125 28.0995 65.6973 28.3046 65.4921C28.5098 65.287 28.625 65.0088 28.625 64.7188V58.5062L32.6937 52.6875H35.0453L36.2812 56.1547V64.7188C36.2812 65.0088 36.3965 65.287 36.6016 65.4921C36.8067 65.6973 37.0849 65.8125 37.375 65.8125H59.25C59.5401 65.8125 59.8183 65.6973 60.0234 65.4921C60.2285 65.287 60.3438 65.0088 60.3438 64.7188V56.1547L65.3641 42.0891C65.6595 41.2643 65.8112 40.3949 65.8125 39.5187V35.1875C65.813 34.6128 65.7002 34.0436 65.4806 33.5125C65.261 32.9814 64.939 32.4988 64.5328 32.0922ZM26.4375 63.625H4.5625V59.25H26.4375V63.625ZM26.9625 57.0625H4.46406L2.375 35.1875V30.8125C2.3776 29.9431 2.72413 29.11 3.33892 28.4952C3.95372 27.8804 4.78681 27.5338 5.65625 27.5312H13.3125C14.1827 27.5312 15.0173 27.877 15.6327 28.4923C16.248 29.1077 16.5938 29.9423 16.5938 30.8125C16.5938 31.6827 16.248 32.5173 15.6327 33.1327C15.0173 33.748 14.1827 34.0938 13.3125 34.0938H7.84375C7.55367 34.0938 7.27547 34.209 7.07035 34.4141C6.86523 34.6192 6.75 34.8974 6.75 35.1875V49.4062C6.7526 50.2757 7.09913 51.1088 7.71392 51.7236C8.32872 52.3384 9.16181 52.6849 10.0312 52.6875H30.025L26.9625 57.0625ZM10.0312 50.5C9.74117 50.5 9.46297 50.3848 9.25785 50.1796C9.05273 49.9745 8.9375 49.6963 8.9375 49.4062V46.125H28.625V43.9375H8.9375V36.2812H13.3125C14.7629 36.2812 16.1539 35.7051 17.1795 34.6795C18.2051 33.6539 18.7812 32.2629 18.7812 30.8125C18.7812 29.3621 18.2051 27.9711 17.1795 26.9455C16.1539 25.9199 14.7629 25.3438 13.3125 25.3438H8.9375V3.46875C8.9375 3.17867 9.05273 2.90047 9.25785 2.69535C9.46297 2.49023 9.74117 2.375 10.0312 2.375H36.2812C36.5713 2.375 36.8495 2.49023 37.0546 2.69535C37.2598 2.90047 37.375 3.17867 37.375 3.46875V25.9562C36.7108 25.5576 35.9512 25.3459 35.1766 25.3438C34.02 25.3466 32.9117 25.8073 32.0939 26.6251C31.2761 27.4429 30.8154 28.5513 30.8125 29.7078V39.5187C30.8147 40.3984 30.9663 41.2712 31.2609 42.1L34.2578 50.5H10.0312ZM41.75 63.625H38.4688V57.0625H41.75V63.625ZM47.2188 63.625H43.9375V57.0625H47.2188V63.625ZM52.6875 63.625H49.4062V57.0625H52.6875V63.625ZM58.1562 63.625H54.875V57.0625H58.1562V63.625ZM63.625 39.5187C63.6237 40.1448 63.5164 40.766 63.3078 41.3563L58.4844 54.875H38.1406L33.3172 41.3672C33.1094 40.773 33.0022 40.1482 33 39.5187V29.7078C33.0014 29.1277 33.2333 28.5718 33.6446 28.1626C34.0558 27.7534 34.6128 27.5243 35.193 27.5258C35.7731 27.5272 36.329 27.7591 36.7382 28.1704C37.1474 28.5816 37.3764 29.1386 37.375 29.7188V38.4688H39.5625V11.125C39.5668 10.5462 39.7986 9.99226 40.208 9.58295C40.6173 9.17364 41.1712 8.94179 41.75 8.9375C42.3296 8.93923 42.885 9.17025 43.2949 9.58012C43.7047 9.98998 43.9358 10.5454 43.9375 11.125V38.4688H46.125V33C46.1293 32.4212 46.3611 31.8673 46.7705 31.4579C47.1798 31.0486 47.7337 30.8168 48.3125 30.8125C48.8921 30.8142 49.4475 31.0453 49.8574 31.4551C50.2672 31.865 50.4983 32.4204 50.5 33V38.4688H52.6875V34.0938C52.6877 33.8068 52.7448 33.5227 52.8556 33.258C52.9664 32.9933 53.1286 32.7531 53.3328 32.5516C53.5641 32.3075 53.854 32.1268 54.175 32.0266C54.3995 31.9459 54.6364 31.9052 54.875 31.9062C55.4546 31.908 56.01 32.139 56.4199 32.5489C56.8297 32.9587 57.0608 33.5141 57.0625 34.0938V39.5625H59.25V35.1875C59.2517 34.6079 59.4828 34.0525 59.8926 33.6426C60.3025 33.2328 60.8579 33.0017 61.4375 33C62.0163 33.0043 62.5702 33.2361 62.9795 33.6455C63.3889 34.0548 63.6207 34.6087 63.625 35.1875V39.5187Z" fill="#303030"/>
    <path d="M23.1563 4.5625C20.993 4.5625 18.8784 5.20397 17.0797 6.4058C15.281 7.60763 13.8792 9.31583 13.0513 11.3144C12.2235 13.313 12.0069 15.5121 12.4289 17.6338C12.8509 19.7555 13.8926 21.7043 15.4223 23.234C16.9519 24.7636 18.9008 25.8053 21.0225 26.2273C23.1441 26.6494 25.3433 26.4328 27.3419 25.6049C29.3404 24.7771 31.0486 23.3752 32.2505 21.5765C33.4523 19.7779 34.0938 17.6632 34.0938 15.5C34.0891 12.6006 32.9353 9.82131 30.8851 7.77113C28.8349 5.72095 26.0556 4.56713 23.1563 4.5625ZM23.1563 24.25C21.4257 24.25 19.7339 23.7368 18.295 22.7754C16.8561 21.8139 15.7346 20.4473 15.0723 18.8485C14.41 17.2496 14.2368 15.4903 14.5744 13.793C14.912 12.0956 15.7454 10.5365 16.9691 9.31282C18.1928 8.08911 19.7519 7.25575 21.4492 6.91813C23.1466 6.58051 24.9059 6.75379 26.5047 7.41605C28.1036 8.07832 29.4702 9.19983 30.4316 10.6388C31.3931 12.0777 31.9063 13.7694 31.9063 15.5C31.9031 17.8197 30.9802 20.0434 29.3399 21.6837C27.6997 23.3239 25.4759 24.2468 23.1563 24.25Z" fill="#303030"/>
    <path d="M26.4375 17.6875C26.434 18.3641 26.2221 19.0232 25.8307 19.5751C25.4393 20.127 24.8874 20.5449 24.25 20.7719V22.0625H22.0625V20.7719C21.4251 20.5449 20.8732 20.127 20.4818 19.5751C20.0904 19.0232 19.8785 18.3641 19.875 17.6875H22.0625C22.0625 17.9038 22.1266 18.1153 22.2468 18.2952C22.367 18.475 22.5378 18.6152 22.7377 18.698C22.9375 18.7808 23.1575 18.8024 23.3696 18.7602C23.5818 18.718 23.7767 18.6139 23.9296 18.4609C24.0826 18.3079 24.1868 18.113 24.229 17.9009C24.2712 17.6887 24.2495 17.4688 24.1667 17.2689C24.084 17.0691 23.9438 16.8983 23.7639 16.7781C23.584 16.6579 23.3726 16.5938 23.1562 16.5938C22.3868 16.5878 21.6438 16.3115 21.0574 15.8133C20.4709 15.3151 20.0782 14.6267 19.9478 13.8682C19.8175 13.1098 19.9579 12.3298 20.3445 11.6644C20.731 10.999 21.3391 10.4906 22.0625 10.2281V8.9375H24.25V10.2281C24.8874 10.4551 25.4393 10.873 25.8307 11.4249C26.2221 11.9768 26.434 12.6359 26.4375 13.3125H24.25C24.25 13.0962 24.1859 12.8847 24.0657 12.7048C23.9455 12.525 23.7747 12.3848 23.5748 12.302C23.375 12.2192 23.155 12.1976 22.9429 12.2398C22.7307 12.282 22.5358 12.3861 22.3829 12.5391C22.2299 12.6921 22.1257 12.887 22.0835 13.0991C22.0413 13.3113 22.063 13.5312 22.1458 13.7311C22.2285 13.9309 22.3687 14.1017 22.5486 14.2219C22.7285 14.3421 22.9399 14.4062 23.1562 14.4062C24.0257 14.4088 24.8588 14.7554 25.4736 15.3702C26.0884 15.985 26.4349 16.8181 26.4375 17.6875Z" fill="#303030"/>
</svg>
