<svg width="53" height="53" viewBox="0 0 53 53" fill="none" xmlns="http://www.w3.org/2000/svg">
    <path d="M26.5 0C11.8878 0 0 11.8878 0 26.5C0 41.1122 11.8878 53 26.5 53C41.1122 53 53 41.1122 53 26.5C53 11.8878 41.1122 0 26.5 0ZM26.5 49.8945C13.6002 49.8945 3.10547 39.3998 3.10547 26.5C3.10547 13.6002 13.6002 3.10547 26.5 3.10547C39.3998 3.10547 49.8945 13.6002 49.8945 26.5C49.8945 39.3998 39.3998 49.8945 26.5 49.8945Z" fill="white"/>
    <path d="M26.5 27.9492C32.4932 27.9492 37.3691 23.0733 37.3691 17.0801C37.3691 11.0868 32.4932 6.21094 26.5 6.21094C20.5068 6.21094 15.6309 11.0868 15.6309 17.0801C15.6309 23.0733 20.5068 27.9492 26.5 27.9492ZM26.5 9.31641C30.7809 9.31641 34.2637 12.7992 34.2637 17.0801C34.2637 21.361 30.7809 24.8438 26.5 24.8438C22.2191 24.8438 18.7363 21.361 18.7363 17.0801C18.7363 12.7992 22.2191 9.31641 26.5 9.31641Z" fill="white"/>
    <path d="M43.9582 34.7236C41.8949 32.3919 38.9274 31.0547 35.8169 31.0547H17.184C14.0735 31.0547 11.106 32.3919 9.04264 34.7236L8.30664 35.5553L8.85589 36.5206C12.46 42.8544 19.221 46.7891 26.5004 46.7891C33.7799 46.7891 40.5409 42.8544 44.1451 36.5205L44.6944 35.5552L43.9582 34.7236ZM26.5004 43.6836C20.7309 43.6836 15.3455 40.7648 12.1756 35.9929C13.5681 34.8178 15.341 34.1602 17.184 34.1602H35.8169C37.6598 34.1602 39.4328 34.8178 40.8252 35.9929C37.6554 40.7648 32.27 43.6836 26.5004 43.6836Z" fill="white"/>
</svg>
