<svg width="76" height="76" viewBox="0 0 76 76" fill="none" xmlns="http://www.w3.org/2000/svg">
    <path d="M46.8667 44.3333H45.4733C44.9493 44.3342 44.4804 44.0072 44.3004 43.515C44.1459 43.1096 43.9799 42.7132 43.8013 42.3205C43.5794 41.843 43.6807 41.2776 44.0547 40.9069L45.0477 39.9126C46.522 38.4254 46.5193 36.0269 45.0414 34.5432L41.4618 30.9636C39.9762 29.4867 37.5768 29.4867 36.0911 30.9636L35.0981 31.9554C34.7266 32.3279 34.1622 32.4291 33.6845 32.2087C33.2918 32.0301 32.8953 31.8642 32.4887 31.7021C31.9939 31.5233 31.6648 31.0527 31.6667 30.5266V29.1333C31.6667 27.0345 29.9654 25.3333 27.8667 25.3333H22.8C20.7013 25.3333 19 27.0345 19 29.1333V30.5266C19.0009 31.0507 18.674 31.5195 18.1817 31.6995C17.7764 31.8541 17.3799 32.02 16.9873 32.1986C16.5096 32.4195 15.945 32.3183 15.5737 31.9453L14.5793 30.9522C13.0939 29.4762 10.6954 29.4762 9.20993 30.9522L5.63033 34.5432C4.1534 36.0288 4.1534 38.4282 5.63033 39.9138L6.62213 40.9069C6.99612 41.2776 7.09745 41.843 6.87547 42.3205C6.69687 42.7132 6.53093 43.1096 6.37513 43.5162C6.19384 44.0114 5.72058 44.3386 5.19333 44.3333H3.8C1.70129 44.3333 0 46.0345 0 48.1332V53.1999C0 55.2986 1.70129 56.9999 3.8 56.9999H5.19333C5.71742 56.999 6.18624 57.3259 6.36627 57.8182C6.5208 58.2235 6.68673 58.62 6.86533 59.0126C7.08732 59.4902 6.98598 60.0556 6.612 60.4263L5.61893 61.4206C4.14295 62.9061 4.14295 65.3045 5.61893 66.79L9.19853 70.3696C10.6842 71.8465 13.0836 71.8465 14.5692 70.3696L15.5623 69.3778C15.9337 69.0052 16.4982 68.904 16.9759 69.1244C17.3685 69.303 17.765 69.469 18.1716 69.6311C18.6689 69.8078 19.0009 70.2789 19 70.8066V72.1999C19 74.2986 20.7013 75.9999 22.8 75.9999H27.8667C29.9654 75.9999 31.6667 74.2986 31.6667 72.1999V70.8066C31.6657 70.2825 31.9927 69.8137 32.4849 69.6336C32.8903 69.4791 33.2867 69.3132 33.6794 69.1346C34.1571 68.9137 34.7217 69.0149 35.093 69.3879L36.0873 70.381C37.5749 71.8546 39.9727 71.8517 41.4567 70.3746L45.0363 66.7951C46.5133 65.3094 46.5133 62.91 45.0363 61.4244L44.0445 60.4313C43.6705 60.0607 43.5692 59.4952 43.7912 59.0177C43.9698 58.625 44.1357 58.2286 44.2979 57.822C44.4766 57.3272 44.9472 56.998 45.4733 56.9999H46.8667C48.9654 56.9999 50.6667 55.2986 50.6667 53.1999V48.1332C50.6667 46.0345 48.9654 44.3333 46.8667 44.3333ZM48.1333 53.1999C48.1333 53.8994 47.5662 54.4666 46.8667 54.4666H45.4733C43.8987 54.4724 42.4895 55.4457 41.9267 56.9163C41.7924 57.271 41.6472 57.6201 41.4909 57.9639C40.8397 59.4015 41.1418 61.0919 42.2509 62.2148L43.2415 63.2066C43.7364 63.7009 43.7369 64.503 43.2424 64.998C43.2421 64.9983 43.2418 64.9986 43.2415 64.9989L39.6619 68.5785C39.1672 69.073 38.3654 69.073 37.8708 68.5785L36.8777 67.5867C35.7553 66.4766 34.0643 66.1744 32.6268 66.8267C32.2835 66.9825 31.9339 67.1282 31.5818 67.2624C30.1123 67.8252 29.1397 69.2331 29.1333 70.8066V72.1999C29.1333 72.8994 28.5662 73.4666 27.8667 73.4666H22.8C22.1005 73.4666 21.5333 72.8994 21.5333 72.1999V70.8066C21.5275 69.232 20.5542 67.8228 19.0836 67.2599C18.7289 67.1256 18.3798 66.9805 18.0361 66.8242C16.5984 66.1733 14.9082 66.4755 13.7851 67.5842L12.7933 68.5747C12.299 69.0697 11.4969 69.0701 11.002 68.5757C11.0016 68.5753 11.0013 68.575 11.001 68.5747L7.4214 64.9989C6.92693 64.5043 6.92693 63.7025 7.4214 63.2078L8.4132 62.2148C9.52233 61.0919 9.82442 59.4015 9.1732 57.9639C9.0174 57.6206 8.87173 57.271 8.73747 56.9188C8.17602 55.4478 6.7678 54.4735 5.19333 54.4666H3.8C3.10048 54.4666 2.53333 53.8994 2.53333 53.1999V48.1332C2.53333 47.4337 3.10048 46.8666 3.8 46.8666H5.19333C6.76796 46.8607 8.17712 45.8875 8.74 44.4169C8.87427 44.0622 9.01946 43.7131 9.17573 43.3693C9.82696 41.9316 9.5247 40.2413 8.41573 39.1184L7.42013 38.1266C6.92518 37.6323 6.92471 36.8301 7.41918 36.3352C7.4195 36.3349 7.41982 36.3346 7.42013 36.3343L10.9997 32.7547C11.4944 32.2602 12.2962 32.2602 12.7908 32.7547L13.7839 33.7465C14.9063 34.8565 16.5973 35.1588 18.0348 34.5065C18.3781 34.3507 18.7277 34.205 19.0798 34.0707C20.5513 33.5097 21.5262 32.1014 21.5333 30.5266V29.1333C21.5333 28.4337 22.1005 27.8666 22.8 27.8666H27.8667C28.5662 27.8666 29.1333 28.4337 29.1333 29.1333V30.5266C29.1392 32.1012 30.1125 33.5104 31.5831 34.0733C31.9377 34.2075 32.2869 34.3527 32.6306 34.509C34.0681 35.1613 35.7591 34.8591 36.8815 33.749L37.8733 32.7585C38.3699 32.2673 39.1691 32.2673 39.6657 32.7585L43.2453 36.3381C43.7397 36.8327 43.7397 37.6345 43.2453 38.1291L42.2535 39.1222C41.1445 40.2451 40.8422 41.9355 41.4935 43.3731C41.6493 43.7164 41.7949 44.066 41.9292 44.4181C42.4919 45.8876 43.8998 46.8603 45.4733 46.8666H46.8667C47.5662 46.8666 48.1333 47.4337 48.1333 48.1332V53.1999Z" fill="white"/>
    <path d="M36.708 50.1599C36.6953 49.8559 36.6738 49.5532 36.6371 49.2517C36.5965 48.9275 36.5484 48.6057 36.4813 48.2903C36.4369 48.0839 36.3787 47.8799 36.3229 47.6747C36.252 47.4138 36.1722 47.1567 36.0835 46.9033C36.0215 46.7273 35.9569 46.5525 35.891 46.3789C35.7279 45.9733 35.5414 45.5773 35.3324 45.1933C35.3159 45.1642 35.3058 45.1325 35.2893 45.1034C34.9598 44.5169 34.5782 43.961 34.1493 43.4428C34.1126 43.3972 34.0708 43.3541 34.0328 43.3098C33.858 43.1033 33.6781 42.9032 33.4894 42.7119C33.3906 42.6093 33.2867 42.5131 33.1829 42.4143C33.0562 42.2965 32.9295 42.1799 32.8029 42.0685C32.6491 41.935 32.4925 41.8058 32.3329 41.6809L32.1252 41.5263C30.1652 40.0583 27.7821 39.2653 25.3333 39.2666C25.2067 39.2666 25.08 39.2856 24.9533 39.2907C24.6835 39.2983 24.4125 39.3135 24.1401 39.3413C23.997 39.3565 23.8526 39.373 23.7095 39.3933C23.2965 39.4476 22.8868 39.5242 22.4821 39.6225C16.3829 41.1986 12.7162 47.4208 14.2923 53.5199C15.3309 57.5391 18.471 60.6766 22.4909 61.7119C22.5112 61.7119 22.5327 61.7183 22.5543 61.7233C22.9917 61.8324 23.4349 61.9171 23.8817 61.9767C24.1769 62.0134 24.472 62.021 24.7684 62.0349C24.966 62.0451 25.1484 62.0742 25.3549 62.0742C25.7159 62.0742 26.0908 62.0501 26.4733 62.0121C26.5139 62.0121 26.5544 62.0007 26.6 61.9957C26.9078 61.9615 27.2194 61.9159 27.5373 61.8525C27.664 61.8285 27.7818 61.7968 27.9034 61.7689C28.1263 61.717 28.348 61.6625 28.576 61.5954C28.7533 61.5422 28.9256 61.4801 29.0991 61.4193C29.2727 61.3585 29.4525 61.2927 29.6324 61.2243C29.8123 61.1559 29.963 61.0773 30.1264 61.0013C30.3392 60.9038 30.5507 60.8075 30.7597 60.6935H30.7673C31.9494 60.0607 33.0413 59.2722 34.0138 58.3489C34.2765 58.1038 34.5049 57.8242 34.6927 57.518C35.6814 55.9331 36.3308 54.1605 36.6003 52.312C36.6358 52.0675 36.6675 51.8231 36.6865 51.5735C36.7042 51.3443 36.7169 51.1163 36.7219 50.8883C36.7219 50.8161 36.7321 50.7477 36.7321 50.6755C36.7333 50.4969 36.7156 50.3322 36.708 50.1599ZM34.1835 50.9896C34.1835 51.0947 34.1747 51.1999 34.1683 51.3037C34.1455 51.6103 34.1063 51.9168 34.0543 52.2246C33.5809 54.8582 31.9458 57.1382 29.6033 58.4313C29.4462 58.5136 29.2917 58.5909 29.1371 58.6618L29.032 58.7125C28.2961 59.0466 27.5193 59.2817 26.7216 59.4117C26.6659 59.4205 26.6089 59.4307 26.5519 59.4383C26.3935 59.4611 26.2377 59.4801 26.0832 59.494C25.8793 59.5117 25.6741 59.5219 25.4651 59.5257C25.3764 59.5257 25.289 59.5257 25.2003 59.5257C24.9006 59.5222 24.6014 59.5037 24.3035 59.4699L24.1515 59.4522C23.8032 59.4066 23.4577 59.3415 23.1167 59.2571C18.3727 58.0429 15.5113 53.2128 16.7254 48.4688C17.5277 45.3341 19.9739 42.8853 23.1078 42.0799V42.0786C23.8355 41.8951 24.5828 41.8014 25.3333 41.7999C25.6954 41.802 26.0572 41.8265 26.4163 41.8734C26.5126 41.8848 26.6076 41.9025 26.7026 41.9165C26.9762 41.9595 27.2473 42.014 27.5145 42.0824C27.6019 42.1052 27.6893 42.1255 27.7755 42.1495C28.449 42.344 29.0974 42.6169 29.7071 42.9627C29.8047 43.0197 29.8997 43.0793 29.9959 43.1388C30.1961 43.2655 30.3899 43.3921 30.5811 43.5365C30.6837 43.6113 30.7876 43.6847 30.8864 43.7645C31.135 43.9631 31.373 44.1745 31.5995 44.3979C31.6895 44.4891 31.7718 44.5891 31.8592 44.6841C32.0049 44.8425 32.1467 45.0046 32.2823 45.1756C32.376 45.2934 32.4659 45.415 32.5546 45.5379C32.6813 45.7203 32.8079 45.9103 32.9219 46.1028C32.9853 46.2079 33.0486 46.3105 33.1132 46.4182C33.2766 46.7189 33.4221 47.0289 33.5489 47.3467C33.5996 47.4733 33.6427 47.6 33.6883 47.7267C33.7706 47.9597 33.8415 48.1953 33.9036 48.4335C33.9353 48.5601 33.9707 48.6729 33.9973 48.7957C34.0713 49.1381 34.1249 49.4845 34.1582 49.8331C34.1658 49.9256 34.1658 50.0193 34.1721 50.1118C34.1899 50.4031 34.1949 50.6957 34.1835 50.9896Z" fill="white"/>
    <path d="M72.2 26.6H68.2164C67.6852 26.6054 67.21 26.2708 67.0358 25.7691C66.643 24.5925 66.1677 23.4449 65.6134 22.3351C65.3781 21.8559 65.4761 21.2797 65.8566 20.9051L68.6812 18.0766C70.1639 16.5929 70.1639 14.1884 68.6812 12.7047L63.2954 7.32767C61.8116 5.84503 59.4072 5.84503 57.9234 7.32767L55.1 10.1498C54.7259 10.5301 54.1505 10.6286 53.6712 10.3943C52.5613 9.83709 51.4134 9.35924 50.236 8.9642C49.7322 8.79177 49.3953 8.31614 49.4 7.78367V3.8C49.4 1.70129 47.6987 0 45.6 0H38C35.9013 0 34.2 1.70129 34.2 3.8V7.78367C34.2054 8.31487 33.871 8.79003 33.3691 8.9642C32.1924 9.35908 31.0448 9.83662 29.9352 10.393C29.4559 10.6291 28.8794 10.5311 28.5051 10.1498L25.6766 7.32513C24.1912 5.84678 21.7902 5.84678 20.3047 7.32513L14.929 12.7009C13.4456 14.1848 13.4456 16.5902 14.929 18.0741L19.0824 22.2351C19.5848 22.7218 20.3867 22.7091 20.8734 22.2066C21.3483 21.7164 21.3494 20.938 20.876 20.4465L16.72 16.2868C16.2256 15.7922 16.2256 14.9904 16.72 14.4957L22.0958 9.12C22.5904 8.62552 23.3922 8.62552 23.8868 9.12L26.7166 11.9447C27.8615 13.0964 29.6158 13.3842 31.0688 12.6591C32.0722 12.1567 33.1096 11.7254 34.1734 11.3683C35.709 10.8485 36.74 9.40484 36.7334 7.78367V3.8C36.7334 3.10048 37.3005 2.53333 38 2.53333H45.6C46.2996 2.53333 46.8667 3.10048 46.8667 3.8V7.78367C46.8602 9.40452 47.8913 10.8477 49.4266 11.3671C50.491 11.7243 51.5288 12.1559 52.5325 12.6591C53.9858 13.3804 55.7378 13.0923 56.8835 11.9434L59.7132 9.12C60.2079 8.62552 61.0097 8.62552 61.5043 9.12L66.88 14.497C67.3737 14.9915 67.3737 15.7923 66.88 16.2868L64.0554 19.1165C62.9048 20.2621 62.6171 22.0156 63.341 23.4688C63.8434 24.4722 64.2747 25.5096 64.6317 26.5734C65.1512 28.1092 66.595 29.1403 68.2164 29.1333H72.2C72.8996 29.1333 73.4667 29.7005 73.4667 30.4V38C73.4667 38.6995 72.8996 39.2667 72.2 39.2667H68.2164C66.5955 39.2602 65.1523 40.2912 64.633 41.8266C64.2759 42.8909 63.8442 43.9288 63.341 44.9325C62.6183 46.3857 62.9067 48.1382 64.0566 49.2835L66.8813 52.1132C67.3758 52.6078 67.3758 53.4096 66.8813 53.9043L61.503 59.28C61.0086 59.7737 60.2077 59.7737 59.7132 59.28L55.551 55.1266C55.0643 54.6241 54.2623 54.6114 53.7599 55.0981C53.2574 55.5848 53.2447 56.3868 53.7314 56.8892C53.7415 56.8996 53.752 56.9101 53.7624 56.9202L57.9234 61.0736C59.4072 62.5562 61.8116 62.5562 63.2954 61.0736L68.6711 55.6991C70.1545 54.2152 70.1545 51.8098 68.6711 50.3259L65.8502 47.5C65.4702 47.1257 65.3719 46.5505 65.6058 46.0712C66.1629 44.9613 66.6408 43.8134 67.0358 42.636C67.2083 42.1322 67.6839 41.7952 68.2164 41.8H72.2C74.2987 41.8 76 40.0987 76 38V30.4C76 28.3013 74.2987 26.6 72.2 26.6Z" fill="white"/>
    <path d="M53.4437 22.5569C47.0093 16.136 36.5916 16.136 30.1573 22.5569C29.6713 23.0601 29.6853 23.862 30.1885 24.3479C30.6793 24.822 31.4575 24.822 31.9483 24.3479C37.353 18.8702 46.1749 18.8112 51.6526 24.2159C57.1303 29.6206 57.1894 38.4425 51.7847 43.9202C51.741 43.9645 51.6969 44.0085 51.6526 44.0522C51.1494 44.5383 51.1355 45.3401 51.6216 45.8433C52.1077 46.3465 52.9095 46.3604 53.4126 45.8743C53.4231 45.8642 53.4335 45.8537 53.4437 45.8433C59.8646 39.4089 59.8646 28.9912 53.4437 22.5569Z" fill="white"/>
</svg>
