<svg width="59" height="60" viewBox="0 0 59 60" fill="none" xmlns="http://www.w3.org/2000/svg">
    <path d="M23.6708 17.5125C23.6708 19.3406 23.6708 21.1125 24.2473 22.7719C18.1864 29.8875 0.692627 50.1234 0.692627 50.1234L1.10044 55.2281C1.10044 55.2281 5.99419 59.8688 6.72544 59.1656C8.89106 57.0563 10.2129 55.6219 10.2129 55.6219L11.2311 49.5258L17.8559 49.0378L18.3875 42.4566L25.3667 42.323L25.4356 35.2791L32.8451 35.5744L34.1108 32.925C36.2904 33.8672 38.2733 34.2469 40.8186 34.2469C50.4514 34.2469 58.2561 26.7375 58.2561 17.4844C58.2561 8.23125 50.4458 0.75 40.8129 0.75C31.1801 0.75 23.6708 8.25938 23.6708 17.5125ZM50.2137 14.25C50.2137 15.3305 49.8933 16.3868 49.293 17.2852C48.6927 18.1837 47.8394 18.8839 46.8411 19.2974C45.8429 19.7109 44.7444 19.8191 43.6846 19.6083C42.6248 19.3975 41.6514 18.8772 40.8873 18.1131C40.1233 17.3491 39.6029 16.3756 39.3921 15.3158C39.1813 14.2561 39.2895 13.1576 39.703 12.1593C40.1165 11.161 40.8168 10.3078 41.7152 9.70745C42.6136 9.10713 43.6699 8.78672 44.7504 8.78672C45.4681 8.78598 46.1788 8.92679 46.842 9.20108C47.5052 9.47537 48.1078 9.87777 48.6152 10.3852C49.1227 10.8927 49.5251 11.4952 49.7994 12.1584C50.0737 12.8216 50.2145 13.5323 50.2137 14.25Z" fill="white"/>
</svg>
