<svg width="63" height="63" viewBox="0 0 63 63" fill="none" xmlns="http://www.w3.org/2000/svg">
    <path d="M43.7922 0.00245841C33.184 0.00245841 24.5844 4.74479 24.5844 10.6033C24.5844 16.4617 33.1865 21.2065 43.7922 21.2065C54.4004 21.2065 63 16.4617 63 10.6033C63 4.74479 54.3979 0 43.7922 0V0.00245841ZM63 13.7525C62.9951 19.611 54.4004 24.3558 43.7922 24.3558C33.2135 24.3558 24.6336 19.6626 24.5844 13.8312V17.9786C24.5844 20.4813 26.1873 22.7725 28.8129 24.5869C31.468 25.3096 33.8331 26.3127 35.8023 27.5812C38.2435 28.2008 40.9281 28.5794 43.7922 28.5794C54.4004 28.5794 63 23.837 63 17.9786V13.7525ZM63 21.1278C63 26.9863 54.4004 31.7311 43.7922 31.7311C42.5015 31.7311 41.2477 31.6352 40.0283 31.5C40.9906 32.7959 41.647 34.2928 41.9484 35.8785C42.5605 35.9129 43.1653 35.9547 43.7922 35.9547C54.4004 35.9547 63 31.2124 63 25.3539V21.1278ZM19.2078 27.0428C8.59963 27.0428 0 31.7876 0 37.6461C0 43.5046 8.60208 48.2494 19.2078 48.2494C29.816 48.2494 38.4156 43.5046 38.4156 37.6461C38.4156 31.7876 29.8135 27.0428 19.2078 27.0428ZM63 28.5032C62.9951 34.3616 54.4004 39.1064 43.7922 39.1064C43.1751 39.1064 42.5507 39.0622 41.9484 39.0277C41.9213 39.2121 41.9066 39.458 41.8722 39.6424C41.9951 40.0136 42.1008 40.3799 42.1008 40.7978V43.2563C42.6589 43.2833 43.2194 43.33 43.7922 43.33C54.4004 43.33 63 38.5877 63 32.7292V28.5032ZM63 35.8785C62.9951 41.7369 54.4004 46.4817 43.7922 46.4817C43.1751 46.4817 42.5507 46.4375 41.9484 46.4031C41.9213 46.5875 41.9066 46.8333 41.8722 47.0177C41.9951 47.3864 42.1008 47.7552 42.1008 48.1731V50.6316C42.6589 50.6586 43.2194 50.7053 43.7922 50.7053C54.4004 50.7053 63 45.963 63 40.1045V35.8785ZM38.4156 40.7954C38.4107 46.6538 29.816 51.3986 19.2078 51.3986C8.62913 51.3986 0.0491688 46.7055 0 40.8716V45.0214C0 50.8799 8.59717 55.6247 19.2078 55.6247C29.8184 55.6247 38.4156 50.8799 38.4156 45.0214V40.7954ZM38.4156 48.1707C38.4107 54.0292 29.816 58.7739 19.2078 58.7739C8.62913 58.7739 0.0491688 54.0808 0 48.2469V52.3967C0 58.2552 8.59717 63 19.2078 63C29.8184 63 38.4156 58.2552 38.4156 52.3967V48.1707Z" fill="white"/>
</svg>
