<svg width="63" height="64" viewBox="0 0 63 64" fill="none" xmlns="http://www.w3.org/2000/svg">
    <path d="M39.9636 0.00540885C39.479 0.0247935 39.0113 0.112024 38.5243 0.233178L5.58497 8.25841C1.68867 9.2131 -0.748948 13.1433 0.208168 17.0421L4.82655 35.8984C5.10641 37.0216 5.65132 38.0614 6.41565 38.9307C7.17997 39.8 8.14146 40.4735 9.21959 40.8948V36.3516C9.21959 29.6711 14.6546 24.2362 21.335 24.2362H51.8512L47.3079 5.53245C46.9061 3.90661 45.9559 2.46907 44.6176 1.46224C43.2793 0.455408 41.6347 -0.0591235 39.9612 0.00540885H39.9636ZM42.9149 10.4561L44.8849 18.7091L36.707 20.6767L34.6619 12.4988L42.9149 10.4561V10.4561ZM21.335 29.0823C17.3224 29.0823 14.0657 32.3389 14.0657 36.3516V55.7362C14.0657 59.7488 17.3224 63.0054 21.335 63.0054H55.258C59.2707 63.0054 62.5273 59.7488 62.5273 55.7362V36.3516C62.5273 32.3389 59.2707 29.0823 55.258 29.0823H21.335ZM21.335 32.9447H55.258C57.1262 32.9447 58.6649 34.4834 58.6649 36.3516V38.7746H17.9281V36.3516C17.9281 34.4834 19.4668 32.9447 21.335 32.9447ZM17.9281 46.0439H58.6649V55.7362C58.6649 57.6044 57.1262 59.143 55.258 59.143H21.335C20.433 59.1379 19.5694 58.7774 18.9316 58.1396C18.2938 57.5017 17.9332 56.6382 17.9281 55.7362V46.0439Z" fill="white"/>
</svg>
