<svg width="26" height="26" viewBox="0 0 26 26" fill="none" xmlns="http://www.w3.org/2000/svg">
    <path fill-rule="evenodd" clip-rule="evenodd" d="M13 0.625C13.3647 0.625 13.7144 0.769866 13.9723 1.02773C14.2301 1.28559 14.375 1.63533 14.375 2V13C14.375 13.3647 14.2301 13.7144 13.9723 13.9723C13.7144 14.2301 13.3647 14.375 13 14.375H2C1.63533 14.375 1.28559 14.2301 1.02773 13.9723C0.769866 13.7144 0.625 13.3647 0.625 13C0.625 12.6353 0.769866 12.2856 1.02773 12.0277C1.28559 11.7699 1.63533 11.625 2 11.625H11.625V2C11.625 1.63533 11.7699 1.28559 12.0277 1.02773C12.2856 0.769866 12.6353 0.625 13 0.625Z" fill="white"/>
    <path fill-rule="evenodd" clip-rule="evenodd" d="M11.625 13C11.625 12.6353 11.7699 12.2856 12.0277 12.0277C12.2856 11.7699 12.6353 11.625 13 11.625H24C24.3647 11.625 24.7144 11.7699 24.9723 12.0277C25.2301 12.2856 25.375 12.6353 25.375 13C25.375 13.3647 25.2301 13.7144 24.9723 13.9723C24.7144 14.2301 24.3647 14.375 24 14.375H14.375V24C14.375 24.3647 14.2301 24.7144 13.9723 24.9723C13.7144 25.2301 13.3647 25.375 13 25.375C12.6353 25.375 12.2856 25.2301 12.0277 24.9723C11.7699 24.7144 11.625 24.3647 11.625 24V13Z" fill="white"/>
</svg>
