<svg width="28" height="28" viewBox="0 0 28 28" fill="none" xmlns="http://www.w3.org/2000/svg">
    <path d="M27.9369 26.4833L20.151 18.6561C22.0123 16.4103 22.937 13.5337 22.733 10.624C22.5289 7.71419 21.2118 4.99484 19.0553 3.03074C16.8987 1.06664 14.0684 0.00875854 11.1523 0.0768224C8.23617 0.144886 5.45833 1.33366 3.39575 3.39624C1.33318 5.45882 0.144398 8.23666 0.0763341 11.1528C0.00827026 14.0689 1.06615 16.8992 3.03025 19.0558C4.99435 21.2123 7.7137 22.5294 10.6235 22.7334C13.5333 22.9375 16.4098 22.0128 18.6557 20.1515L26.4828 27.9374L27.9369 26.4833ZM2.15566 11.4374C2.15566 9.60174 2.7 7.80731 3.71983 6.28101C4.73967 4.75472 6.1892 3.56512 7.88513 2.86264C9.58106 2.16017 11.4472 1.97637 13.2476 2.33449C15.048 2.69261 16.7017 3.57656 17.9997 4.87456C19.2978 6.17257 20.1817 7.82633 20.5398 9.62672C20.8979 11.4271 20.7141 13.2933 20.0117 14.9892C19.3092 16.6851 18.1196 18.1346 16.5933 19.1545C15.067 20.1743 13.2726 20.7186 11.4369 20.7186C8.97537 20.7186 6.61465 19.7408 4.87408 18.0002C3.1335 16.2597 2.15566 13.8989 2.15566 11.4374Z" fill="rgba(48, 48, 48, 0.5)"/>
</svg>
