<svg width="44" height="44" viewBox="0 0 44 44" fill="none" xmlns="http://www.w3.org/2000/svg">
    <g clip-path="url(#clip0)">
        <path d="M22 44C34.1302 44 44 34.1311 44 22C44 19.9062 43.7077 17.8428 43.129 15.8667C42.8439 14.8949 41.8292 14.3368 40.8548 14.6219C39.8822 14.9061 39.3258 15.9244 39.61 16.8961C40.0894 18.5379 40.3333 20.2557 40.3333 22C40.3333 32.1088 32.1088 40.3333 22 40.3333C11.8912 40.3333 3.66667 32.1088 3.66667 22C3.66667 11.8912 11.8912 3.66667 22 3.66667C25.6738 3.66667 29.2085 4.74089 32.2216 6.7725C33.0604 7.3387 34.2009 7.11625 34.7662 6.27747C35.332 5.43778 35.1113 4.29822 34.2716 3.73246C30.6506 1.29085 26.4074 0 22 0C9.86983 0 0 9.86894 0 22C0 34.1311 9.86983 44 22 44V44Z" fill="url(#paint0_linear)"/>
        <path d="M40.8703 4.20377L21.9998 23.0733L15.9627 17.0371C15.2466 16.3214 14.0864 16.3214 13.3703 17.0371C12.6546 17.7532 12.6546 18.9134 13.3703 19.6295L20.7036 26.9629C21.0621 27.3214 21.5303 27.5 21.9998 27.5C22.4693 27.5 22.9375 27.3214 23.2961 26.9629L43.4627 6.79621C44.1784 6.08007 44.1784 4.91991 43.4627 4.20377C42.7466 3.48807 41.5864 3.48807 40.8703 4.20377Z" fill="url(#paint1_linear)"/>
    </g>
    <defs>
        <linearGradient id="paint0_linear" x1="22" y1="0" x2="22" y2="44" gradientUnits="userSpaceOnUse">
            <stop stop-color="#0EB879"/>
            <stop offset="1" stop-color="#0FDF90"/>
        </linearGradient>
        <linearGradient id="paint1_linear" x1="28.4165" y1="3.66699" x2="28.4165" y2="27.5" gradientUnits="userSpaceOnUse">
            <stop stop-color="#0EB879"/>
            <stop offset="1" stop-color="#0FDF90"/>
        </linearGradient>
        <clipPath id="clip0">
            <rect width="44" height="44" fill="white"/>
        </clipPath>
    </defs>
</svg>
