<svg width="44" height="44" viewBox="0 0 44 44" fill="none" xmlns="http://www.w3.org/2000/svg">
    <path d="M0.723696 21.9902H0.749362C1.1448 21.9905 1.4692 21.6771 1.48268 21.2819C1.8794 9.94882 11.3882 1.0832 22.7213 1.47984C27.0805 1.63246 31.2778 3.16921 34.7049 5.86754H30.8021C30.3972 5.86754 30.0688 6.19589 30.0688 6.60086C30.0688 7.00583 30.3972 7.33418 30.8021 7.33418H36.6687H36.6789C36.7363 7.3295 36.7929 7.31823 36.8476 7.30044C36.8851 7.29503 36.922 7.28697 36.9583 7.27624C36.9789 7.26744 36.9943 7.24911 37.0141 7.23811C37.0799 7.20594 37.1403 7.16359 37.193 7.11271L37.2003 7.10758C37.2189 7.0821 37.2359 7.05542 37.2509 7.02765C37.2893 6.9809 37.3217 6.92938 37.347 6.87439C37.3672 6.8159 37.3795 6.75504 37.3837 6.69326C37.3921 6.66301 37.3982 6.63212 37.402 6.60086V0.734327C37.402 0.329353 37.0737 0.00101097 36.6687 0.00101097C36.2637 0.00101097 35.9354 0.329353 35.9354 0.734327V4.9817C26.5396 -2.71648 12.6822 -1.34041 4.98399 8.05539C1.92853 11.7847 0.183058 16.4146 0.0160451 21.2327C0.00247872 21.6372 0.31918 21.9763 0.723696 21.9902Z" fill="url(#paint0_linear)"/>
    <path d="M6.65835 35.6467C6.38922 35.3429 5.92485 35.3149 5.62107 35.584C5.31729 35.8531 5.28924 36.3175 5.55837 36.6213C6.06317 37.1878 6.59647 37.7282 7.15627 38.2404C7.46069 38.5076 7.92396 38.4774 8.19116 38.1731C8.45076 37.8773 8.43059 37.4294 8.14551 37.1581C7.62431 36.68 7.12794 36.1756 6.65835 35.6467Z" fill="url(#paint1_linear)"/>
    <path d="M15.4098 41.4533C14.7393 41.2263 14.0812 40.9646 13.4379 40.6694C13.075 40.4896 12.635 40.6381 12.4553 41.001C12.2755 41.3639 12.424 41.8039 12.7869 41.9837C12.7994 41.9898 12.812 41.9957 12.8248 42.0011C13.5145 42.3186 14.2205 42.5995 14.9397 42.8429C15.3234 42.9727 15.7398 42.7668 15.8696 42.3831C15.9995 41.9994 15.7936 41.5831 15.4098 41.4533Z" fill="url(#paint2_linear)"/>
    <path d="M11.5574 39.6837V39.683C10.9479 39.3219 10.3572 38.9303 9.78719 38.5097C9.46921 38.2588 9.00813 38.3133 8.75725 38.6312C8.50636 38.9492 8.56081 39.4103 8.8788 39.6612C8.89071 39.6705 8.90281 39.6796 8.91528 39.6882C9.52485 40.1395 10.1571 40.5592 10.8094 40.9459C11.1579 41.1524 11.6079 41.0373 11.8145 40.6888C12.0211 40.3402 11.9059 39.8903 11.5574 39.6837Z" fill="url(#paint3_linear)"/>
    <path d="M5.32994 33.9917C4.91653 33.417 4.53282 32.8214 4.1801 32.2076C3.97761 31.8562 3.52864 31.7356 3.17729 31.9381C2.82594 32.1406 2.7053 32.5895 2.90779 32.9409C3.28563 33.5973 3.69684 34.2339 4.13976 34.8482C4.38295 35.1721 4.84265 35.2374 5.1665 34.9943C5.48109 34.758 5.55323 34.3157 5.32994 33.9917Z" fill="url(#paint4_linear)"/>
    <path d="M3.28481 30.6176C3.28481 30.5154 3.26336 30.4143 3.22202 30.3209L3.22055 30.3158C2.93355 29.6694 2.68019 29.0085 2.46157 28.3358C2.35524 27.9451 1.95219 27.7144 1.56142 27.8209C1.17066 27.9272 0.940031 28.3302 1.04645 28.721C1.05269 28.7437 1.05993 28.7662 1.06827 28.7883C1.30229 29.5107 1.57352 30.2206 1.88078 30.9149C1.99839 31.1804 2.26147 31.3514 2.55177 31.3512C2.95674 31.3511 3.2849 31.0226 3.28481 30.6176Z" fill="url(#paint5_linear)"/>
    <path d="M1.34903 27.1528C1.34912 27.1528 1.3493 27.1527 1.34939 27.1527C1.74511 27.0684 1.99774 26.6796 1.91405 26.2838C1.76793 25.591 1.65729 24.8913 1.58259 24.1872C1.53987 23.7842 1.17853 23.4922 0.775574 23.5349C0.372616 23.5776 0.080573 23.939 0.123289 24.3419C0.203587 25.0961 0.322476 25.8455 0.47968 26.5873C0.563645 26.9836 0.952853 27.2367 1.34903 27.1528Z" fill="url(#paint6_linear)"/>
    <path d="M42.8275 26.4042C42.8273 26.4041 42.827 26.4041 42.8267 26.404C42.4336 26.3067 42.0361 26.5463 41.9387 26.9393C41.7687 27.6268 41.5634 28.305 41.3234 28.9713C41.1861 29.3525 41.3837 29.7727 41.7649 29.91C42.146 30.0473 42.5662 29.8497 42.7035 29.4685C42.9608 28.7549 43.1811 28.0284 43.3635 27.2921C43.4607 26.8989 43.2207 26.5014 42.8275 26.4042Z" fill="url(#paint7_linear)"/>
    <path d="M19.5443 42.3868C18.8414 42.3031 18.1434 42.1832 17.4529 42.0275C17.0578 41.9382 16.6651 42.1861 16.5758 42.5811C16.4865 42.9762 16.7344 43.3689 17.1295 43.4582C17.8696 43.625 18.6178 43.7535 19.3712 43.8432C19.4005 43.8468 19.4298 43.8484 19.4592 43.8483C19.8642 43.8475 20.1918 43.5184 20.191 43.1134C20.1902 42.7426 19.9127 42.4306 19.5443 42.3868Z" fill="url(#paint8_linear)"/>
    <path d="M41.4754 30.587C41.1108 30.411 40.6727 30.5637 40.4963 30.928C40.1881 31.5655 39.8469 32.1865 39.4741 32.7884C39.2667 33.1364 39.3808 33.5865 39.7287 33.7937C40.0682 33.996 40.507 33.8929 40.7207 33.5606C41.1198 32.9154 41.4853 32.2498 41.8156 31.5667C41.9922 31.2023 41.8399 30.7637 41.4754 30.587Z" fill="url(#paint9_linear)"/>
    <path d="M39.3088 34.4008C38.9918 34.1488 38.5305 34.2014 38.2784 34.5184C38.274 34.5239 38.2697 34.5295 38.2655 34.5351V34.5337C37.8328 35.0949 37.3715 35.6334 36.8832 36.147C36.604 36.4406 36.6156 36.905 36.9092 37.1842C37.2028 37.4634 37.6673 37.4518 37.9465 37.1582C38.4686 36.6079 38.9626 36.0315 39.4263 35.4312C39.6784 35.1143 39.6258 34.6529 39.3088 34.4008Z" fill="url(#paint10_linear)"/>
    <path d="M43.2791 22.0349C42.8807 22.0145 42.5412 22.3211 42.521 22.7194C42.5206 22.7269 42.5203 22.7344 42.5201 22.7418C42.4953 23.4494 42.4338 24.1554 42.3361 24.8567C42.2808 25.2573 42.5604 25.627 42.9609 25.6831C42.9949 25.6881 43.0291 25.6905 43.0635 25.6904C43.429 25.6899 43.7383 25.4203 43.7888 25.0583C43.8932 24.3071 43.959 23.5511 43.986 22.7931C44 22.3886 43.6837 22.0492 43.2791 22.0349Z" fill="url(#paint11_linear)"/>
    <path d="M35.3465 37.6055V37.6077C34.8068 38.0684 34.2439 38.5012 33.6599 38.9042C33.3259 39.135 33.2424 39.5929 33.4732 39.9268C33.7041 40.2607 34.1619 40.3443 34.4959 40.1134C35.1204 39.6798 35.7224 39.2148 36.2998 38.7201C36.6076 38.4569 36.6438 37.994 36.3805 37.6862C36.1173 37.3784 35.6543 37.3422 35.3465 37.6055Z" fill="url(#paint12_linear)"/>
    <path d="M27.9481 41.6592C27.2704 41.8634 26.5826 42.0322 25.8874 42.1652C25.4897 42.2417 25.2293 42.626 25.3058 43.0238C25.3721 43.3685 25.6735 43.6179 26.0246 43.6186C26.071 43.6188 26.1174 43.6146 26.1632 43.6061C26.9084 43.4637 27.6457 43.2824 28.3719 43.0627C28.7566 42.936 28.9656 42.5214 28.8389 42.1367C28.7166 41.7657 28.3248 41.5557 27.9481 41.6592Z" fill="url(#paint13_linear)"/>
    <path d="M23.8227 42.4536C23.8092 42.4544 23.7958 42.4556 23.7824 42.457L23.7861 42.46C23.1994 42.5098 22.5989 42.5333 22.0005 42.5333H21.6653C21.2654 42.539 20.9385 42.8539 20.9181 43.2534C20.9108 43.6584 21.2331 43.9926 21.6379 43.9999C21.638 43.9999 21.6381 43.9999 21.6382 43.9999H22.0005C22.6414 43.9999 23.2838 43.9713 23.9071 43.9178C24.3114 43.8945 24.6203 43.5478 24.597 43.1435C24.5736 42.7392 24.2269 42.4303 23.8227 42.4536Z" fill="url(#paint14_linear)"/>
    <path d="M31.8555 40.0173H31.8562C31.2354 40.3573 30.5976 40.6652 29.9452 40.9399C29.5699 41.0921 29.3891 41.5197 29.5412 41.895C29.6934 42.2703 30.1211 42.4511 30.4964 42.299C30.5019 42.2968 30.5073 42.2945 30.5127 42.2921C31.2117 41.9979 31.8951 41.668 32.5601 41.3036C32.9153 41.109 33.0455 40.6633 32.8509 40.3081C32.6564 39.9529 32.2107 39.8227 31.8555 40.0173Z" fill="url(#paint15_linear)"/>
    <path d="M22.0002 6.60083C13.4952 6.60083 6.60059 13.4955 6.60059 22.0005C6.60059 30.5055 13.4952 37.4001 22.0002 37.4001C30.5052 37.4001 37.3999 30.5055 37.3999 22.0005C37.3903 13.4995 30.5012 6.61055 22.0002 6.60083ZM33.7333 22.7338H35.8958C35.5149 29.8394 29.8391 35.5151 22.7335 35.8961V33.7335C22.7335 33.3286 22.4052 33.0002 22.0002 33.0002C21.5953 33.0002 21.2669 33.3286 21.2669 33.7335V35.8961C14.1614 35.5151 8.48558 29.8394 8.10462 22.7338H10.2672C10.6721 22.7338 11.0005 22.4055 11.0005 22.0005C11.0005 21.5955 10.6721 21.2672 10.2672 21.2672H8.10462C8.48558 14.1616 14.1614 8.48582 21.2669 8.10486V10.2674C21.2669 10.6724 21.5953 11.0007 22.0002 11.0007C22.4052 11.0007 22.7335 10.6724 22.7335 10.2674V8.10486C29.8391 8.48582 35.5149 14.1616 35.8958 21.2672H33.7333C33.3283 21.2672 33 21.5955 33 22.0005C33 22.4055 33.3283 22.7338 33.7333 22.7338Z" fill="url(#paint16_linear)"/>
    <path d="M22.7336 19.9356V13.2008C22.7336 12.7959 22.4052 12.4675 22.0002 12.4675C21.5953 12.4675 21.2669 12.7959 21.2669 13.2008V19.9356C20.6459 20.1574 20.1571 20.6463 19.9352 21.2673H16.1337C15.7287 21.2673 15.4004 21.5957 15.4004 22.0006C15.4004 22.4056 15.7287 22.7339 16.1337 22.7339H19.9352C20.3371 23.8776 21.59 24.4789 22.7336 24.077C23.8772 23.6752 24.4785 22.4223 24.0766 21.2787C23.8559 20.6504 23.3618 20.1564 22.7336 19.9356ZM22.0002 22.7339C21.5953 22.7339 21.2669 22.4056 21.2669 22.0006C21.2669 21.5957 21.5953 21.2673 22.0002 21.2673C22.4052 21.2673 22.7336 21.5957 22.7336 22.0006C22.7336 22.4056 22.4053 22.7339 22.0002 22.7339Z" fill="url(#paint17_linear)"/>
    <defs>
        <linearGradient id="paint0_linear" x1="18.7088" y1="0" x2="18.7088" y2="21.9902" gradientUnits="userSpaceOnUse">
            <stop stop-color="#0EB879"/>
            <stop offset="1" stop-color="#0FDF90"/>
        </linearGradient>
        <linearGradient id="paint1_linear" x1="6.87343" y1="35.3992" x2="6.87343" y2="38.4226" gradientUnits="userSpaceOnUse">
            <stop stop-color="#0EB879"/>
            <stop offset="1" stop-color="#0FDF90"/>
        </linearGradient>
        <linearGradient id="paint2_linear" x1="14.1437" y1="40.593" x2="14.1437" y2="42.8818" gradientUnits="userSpaceOnUse">
            <stop stop-color="#0EB879"/>
            <stop offset="1" stop-color="#0FDF90"/>
        </linearGradient>
        <linearGradient id="paint3_linear" x1="10.2584" y1="38.3521" x2="10.2584" y2="41.0485" gradientUnits="userSpaceOnUse">
            <stop stop-color="#0EB879"/>
            <stop offset="1" stop-color="#0FDF90"/>
        </linearGradient>
        <linearGradient id="paint4_linear" x1="4.13455" y1="31.8398" x2="4.13455" y2="35.1412" gradientUnits="userSpaceOnUse">
            <stop stop-color="#0EB879"/>
            <stop offset="1" stop-color="#0FDF90"/>
        </linearGradient>
        <linearGradient id="paint5_linear" x1="2.15266" y1="27.7949" x2="2.15266" y2="31.3512" gradientUnits="userSpaceOnUse">
            <stop stop-color="#0EB879"/>
            <stop offset="1" stop-color="#0FDF90"/>
        </linearGradient>
        <linearGradient id="paint6_linear" x1="1.0246" y1="23.5308" x2="1.0246" y2="27.1689" gradientUnits="userSpaceOnUse">
            <stop stop-color="#0EB879"/>
            <stop offset="1" stop-color="#0FDF90"/>
        </linearGradient>
        <linearGradient id="paint7_linear" x1="42.3324" y1="26.3823" x2="42.3324" y2="29.9536" gradientUnits="userSpaceOnUse">
            <stop stop-color="#0EB879"/>
            <stop offset="1" stop-color="#0FDF90"/>
        </linearGradient>
        <linearGradient id="paint8_linear" x1="18.3743" y1="42.0093" x2="18.3743" y2="43.8483" gradientUnits="userSpaceOnUse">
            <stop stop-color="#0EB879"/>
            <stop offset="1" stop-color="#0FDF90"/>
        </linearGradient>
        <linearGradient id="paint9_linear" x1="40.6299" y1="30.5139" x2="40.6299" y2="33.8972" gradientUnits="userSpaceOnUse">
            <stop stop-color="#0EB879"/>
            <stop offset="1" stop-color="#0FDF90"/>
        </linearGradient>
        <linearGradient id="paint10_linear" x1="38.1334" y1="34.2415" x2="38.1334" y2="37.3862" gradientUnits="userSpaceOnUse">
            <stop stop-color="#0EB879"/>
            <stop offset="1" stop-color="#0FDF90"/>
        </linearGradient>
        <linearGradient id="paint11_linear" x1="43.1578" y1="22.0339" x2="43.1578" y2="25.6904" gradientUnits="userSpaceOnUse">
            <stop stop-color="#0EB879"/>
            <stop offset="1" stop-color="#0FDF90"/>
        </linearGradient>
        <linearGradient id="paint12_linear" x1="34.9497" y1="37.4294" x2="34.9497" y2="40.2439" gradientUnits="userSpaceOnUse">
            <stop stop-color="#0EB879"/>
            <stop offset="1" stop-color="#0FDF90"/>
        </linearGradient>
        <linearGradient id="paint13_linear" x1="27.0842" y1="41.6328" x2="27.0842" y2="43.6186" gradientUnits="userSpaceOnUse">
            <stop stop-color="#0EB879"/>
            <stop offset="1" stop-color="#0FDF90"/>
        </linearGradient>
        <linearGradient id="paint14_linear" x1="22.7581" y1="42.4524" x2="22.7581" y2="43.9999" gradientUnits="userSpaceOnUse">
            <stop stop-color="#0EB879"/>
            <stop offset="1" stop-color="#0FDF90"/>
        </linearGradient>
        <linearGradient id="paint15_linear" x1="31.2143" y1="39.927" x2="31.2143" y2="42.3529" gradientUnits="userSpaceOnUse">
            <stop stop-color="#0EB879"/>
            <stop offset="1" stop-color="#0FDF90"/>
        </linearGradient>
        <linearGradient id="paint16_linear" x1="22.0002" y1="6.60083" x2="22.0002" y2="37.4001" gradientUnits="userSpaceOnUse">
            <stop stop-color="#0EB879"/>
            <stop offset="1" stop-color="#0FDF90"/>
        </linearGradient>
        <linearGradient id="paint17_linear" x1="19.8009" y1="12.4675" x2="19.8009" y2="24.2017" gradientUnits="userSpaceOnUse">
            <stop stop-color="#0EB879"/>
            <stop offset="1" stop-color="#0FDF90"/>
        </linearGradient>
    </defs>
</svg>
